<?xml version="1.0" encoding="UTF-8"?>
<!DOCTYPE svg PUBLIC "-//W3C//DTD SVG 1.1//EN" "http://www.w3.org/Graphics/SVG/1.1/DTD/svg11.dtd">
<!-- Creator: CorelDRAW 2020 (64 Bit) -->
<svg xmlns="http://www.w3.org/2000/svg" xml:space="preserve" width="96.8634mm" height="43.2546mm" version="1.1" style="shape-rendering:geometricPrecision; text-rendering:geometricPrecision; image-rendering:optimizeQuality; fill-rule:evenodd; clip-rule:evenodd"
viewBox="0 0 1710.41 763.79"
 xmlns:xlink="http://www.w3.org/1999/xlink"
 xmlns:xodm="http://www.corel.com/coreldraw/odm/2003">
 <defs>
  <style type="text/css">
   <![CDATA[
    .fil2 {fill:#021E35}
    .fil0 {fill:#02203A}
    .fil1 {fill:#032139}
    .fil3 {fill:#032139}
    .fil4 {fill:#032139;fill-rule:nonzero}
   ]]>
  </style>
 </defs>
 <g id="Camada_x0020_1">
  <metadata id="CorelCorpID_0Corel-Layer"/>
  <g id="_2667098780992">
   <path class="fil0" d="M1469.59 123.91c-6.08,24.48 -27.37,27.82 -55.34,27.08l0.61 -83.47c28.58,-5.56 49.87,8.16 54.73,30.79 2.43,7.05 3.04,18.92 0,25.6zm-94.26 -60.84c8.51,3.71 13.38,2.23 17.64,10.02 3.65,8.16 1.82,68.26 1.82,79.76 0,11.5 1.82,71.97 -1.82,80.13 -3.04,8.16 -7.91,7.79 -17.03,11.13 4.26,3.34 54.12,1.49 58.38,1.11 -5.47,-4.45 -12.16,-0.74 -17.03,-9.28 -5.47,-9.27 -3.04,-66.78 -3.04,-79.76 18.85,0 26.76,5.93 36.49,15.95 7.91,8.16 23.72,35.99 29.8,46.37l18.24 27.08 33.45 -1.49c-31.01,-13.35 -32.84,-40.06 -55.34,-69.74 -9.73,-12.24 -10.95,-10.76 -22.5,-20.77 18.24,-3.71 28.58,-11.87 34.66,-26.34 10.34,-23 -1.22,-51.94 -24.93,-61.58 -12.16,-4.82 -65.68,-5.94 -82.1,-4.08 -3.65,0 0,-0.37 -3.04,0.37 -3.65,0.74 -1.22,-0.37 -3.65,1.11z"/>
   <path class="fil0" d="M959.97 140.97l-1.83 0 -4.26 4.08c-9.12,5.94 -30.41,7.42 -39.53,5.19 -0.61,-13.73 -3.04,-74.57 1.21,-81.99 7.3,-4.45 23.11,-1.48 31.02,1.86 7.91,2.97 15.2,10.76 18.85,16.32 9.12,16.69 8.51,45.26 -5.47,54.53zm-84.53 -77.91c15.2,7.79 19.46,-2.97 19.46,35.24 0,18.55 2.43,126.5 -2.43,136.15 -1.82,4.45 -3.04,5.19 -7.3,6.68 -4.26,1.48 -6.69,1.48 -9.73,4.45l58.99 0c-9.73,-9.65 -20.68,5.56 -20.68,-33.39 0.61,-18.55 0.61,-37.1 0.61,-55.28 37.7,-6.31 55.34,50.08 83.92,88.29l30.41 0c3.65,-1.11 1.83,-0.37 4.26,-1.86 -12.16,-2.22 -18.85,-8.9 -24.33,-17.81 -23.11,-34.87 -22.5,-47.12 -52.91,-71.23 6.69,-4.82 25.54,-5.93 34.06,-27.82 6.08,-16.32 2.43,-35.61 -7.3,-47.49 -18.24,-21.15 -47.43,-17.44 -77.23,-17.44 -7.3,0 -25.54,-1.48 -29.8,1.48z"/>
   <path class="fil0" d="M585.97 151.73c24.93,0 46.83,0.74 60.2,17.06 13.38,16.32 9.73,46 -2.43,59.73 -13.38,14.84 -52.3,16.32 -57.17,0.37 -2.43,-6.68 -1.82,-67.89 -0.61,-77.16zm-0.61 -81.99c31.02,-6.68 52.3,7.05 53.52,36.73 1.22,38.95 -30.41,39.32 -53.52,39.32l0 -76.05zm88.79 146.54c0,-9.65 4.26,-16.32 1.22,-28.57 -2.43,-11.13 -7.91,-15.95 -10.34,-22.63 -18.85,-10.76 -15.2,-12.24 -43.78,-17.81 15.81,-7.79 26.15,-9.28 34.06,-23.74 9.73,-16.69 3.65,-34.5 -6.08,-45.26 -20.68,-23 -66.29,-16.69 -102.77,-16.69 0.61,0.37 1.22,0 1.22,0.74l4.26 1.48c15.81,6.31 14.6,14.1 14.6,33.02 0,17.81 1.82,127.99 -2.43,136.89 -3.04,6.68 -7.3,7.79 -11.55,9.27l-6.08 2.6c27.37,0 87.57,4.82 107.64,-8.53 11.56,-7.42 13.38,-14.1 20.07,-20.77z"/>
   <path class="fil0" d="M1152.14 213.68c-9.73,31.53 -50.48,30.05 -61.42,20.77 -8.51,-7.05 -5.47,-25.97 -5.47,-38.58 0,-13.73 -0.61,-29.68 0.61,-43.41 13.38,-2.6 45.61,-1.48 54.73,12.24 2.43,0.37 2.43,-2.23 7.91,7.05 7.3,12.61 9.73,34.13 3.65,41.92zm-66.89 -143.94c58.38,-12.61 64.46,51.19 39.53,69 -11.55,8.53 -23.72,7.42 -39.53,7.05l0 -76.05zm-38.92 175.47l63.85 0.37c29.19,0 62.64,-7.42 66.29,-43.03 3.04,-35.24 -24.33,-50.82 -55.34,-54.9 8.51,-5.57 14.6,-3.34 27.97,-16.32 21.28,-21.15 13.38,-69.74 -46.83,-69.74l-55.95 0c9.73,8.53 20.07,-5.19 20.07,35.24 0,18.92 2.43,127.62 -2.43,137.63 -4.26,9.27 -11.56,6.31 -17.64,10.76z"/>
   <path class="fil1" d="M550.09 532.72c6.69,5.19 35.27,2.6 45,2.6 4.86,0 10.95,0.74 13.99,-1.85 -16.42,-5.57 -19.46,-0.37 -19.46,-34.87 0,-17.06 -1.22,-37.84 0.61,-54.16l37.71 41.92c2.43,2.97 3.65,3.71 6.69,6.31l31.01 35.99c7.3,9.64 13.38,6.68 33.45,6.68 4.86,0 9.73,0.37 12.16,-1.85l-15.81 -4.08c-9.12,-4.45 -37.1,-36.73 -45.61,-47.12 -14.6,-16.69 -29.19,-33.02 -43.18,-49.34l50.48 -50.45c1.82,-1.85 3.04,-3.71 4.86,-5.93 5.47,-5.19 7.3,-7.42 11.56,-10.76 10.95,-9.27 10.95,-9.64 21.89,-11.5 2.43,-0.37 3.65,-0.37 5.47,-1.11 3.65,-1.48 0.61,0.37 3.04,-2.23l-51.08 0c2.43,2.97 1.22,1.49 6.69,3.34 4.86,1.86 1.82,-0.37 6.08,3.34 1.22,10.39 -23.72,32.65 -32.84,40.81 -1.21,0.74 -1.21,1.48 -2.43,2.22 -3.04,1.86 0,0.37 -3.04,1.11 -2.43,5.19 -4.86,6.68 -9.12,10.76 -3.04,3.34 -5.47,5.57 -9.12,8.9 -6.08,6.31 -11.56,13.36 -18.85,17.81 -0.61,-18.18 -0.61,-36.36 -0.61,-54.53 -0.61,-30.05 4.26,-26.34 15.81,-31.16l-54.73 -2.23c4.26,3.71 4.26,1.86 10.34,4.08 4.26,1.86 5.47,2.6 7.3,6.68 4.86,10.02 2.43,117.6 2.43,136.52 0,20.03 0.61,34.5 -20.68,34.13z"/>
   <polygon class="fil2" points="464.34,760.87 473.46,760.87 473.46,0 464.34,0 "/>
   <path class="fil1" d="M1085.86 368.75c10.34,1.11 7.3,25.6 7.3,38.58 0,21.15 3.04,105.73 -4.26,117.97 -5.47,10.02 -10.34,3.71 -15.81,10.76l42.57 -3.34c-1.21,-0.37 -2.43,-0.74 -3.65,-1.11 -18.24,-5.56 -12.77,-36.73 -12.77,-61.95 0,-28.57 -0.61,-57.5 0,-86.07l35.27 38.95c17.64,16.69 54.73,62.69 71.76,79.02 3.65,3.71 4.86,6.68 8.51,10.76l26.76 27.45c1.82,-33.02 0,-70.11 0,-103.87 0,-14.47 -2.43,-64.92 3.04,-74.57 4.26,-7.42 10.34,-6.68 17.64,-8.9l0 -0.74 -47.43 -0.37c6.69,4.82 18.24,0.74 20.68,21.15 1.22,15.95 0,112.41 0,133.18l-94.26 -105.36c-6.69,-8.9 -37.1,-38.95 -43.18,-49.34l-32.23 0.37c-4.26,1.11 -1.22,-0.37 -3.04,1.49 15.81,7.79 12.77,1.48 23.11,15.95z"/>
   <path class="fil1" d="M1616.76 77.53l30.41 86.44 -57.77 0 27.36 -86.44zm-32.23 166.94c-15.81,-4.08 -20.07,-4.82 -10.95,-34.13 4.26,-12.98 9.12,-26.71 13.38,-39.7l63.25 0c27.37,79.02 23.72,68.26 -0.61,73.82 7.3,2.6 56.56,2.97 60.81,-0.37 -17.64,-7.05 -18.24,-7.05 -27.98,-36.73 -5.47,-16.69 -11.55,-33.39 -17.64,-50.08 -11.56,-32.28 -21.89,-66.78 -34.06,-98.31l-13.38 0c-5.47,11.13 -26.15,80.13 -32.23,98.68 -4.86,14.1 -20.07,63.44 -25.54,73.45 -7.91,13.73 -11.56,7.42 -18.85,14.1 10.95,1.48 34.06,2.22 43.78,-0.74z"/>
   <path class="fil1" d="M1266.47 77.53c5.47,7.05 26.15,73.45 30.41,86.44l-12.77 0 -30.41 0 -6.08 0 -8.51 0 27.37 -86.44zm-76.02 167.68l38.31 -1.86c-1.21,-0.74 -2.43,-0.74 -4.26,-1.85 -10.34,-5.19 -4.26,-20.77 -1.22,-29.68 4.26,-13.73 9.73,-27.82 13.38,-41.18l63.25 0c4.26,13.36 21.89,55.28 18.85,67.15 -3.65,4.08 -3.04,3.71 -8.51,4.82 -1.82,0.37 -3.65,0.37 -5.47,0.74l-4.86 2.23c11.56,0 54.73,2.6 60.81,-1.49 -19.46,-5.56 -20.68,-12.98 -28.58,-36.73 -12.16,-36.73 -39.53,-119.08 -51.69,-148.39l-12.77 0c-7.3,16.32 -10.95,33.02 -17.03,49.34 -6.69,20.4 -35.27,111.66 -41.35,123.16 -7.91,13.35 -11.56,6.68 -18.85,13.73z"/>
   <path class="fil0" d="M863.89 354.28c15.81,5.19 12.16,24.48 12.16,41.92 0,17.81 2.43,119.45 -3.04,129.1 -4.26,7.42 -10.95,5.19 -17.03,9.64l110.07 0.37 5.47 -22.26c1.22,-9.65 0.61,-4.08 -1.22,-6.68l-6.69 13.73c-9.12,11.5 -60.21,14.1 -66.29,3.71 -4.26,-7.42 -3.04,-65.29 -1.83,-77.16 7.3,-1.11 30.41,-0.74 38.92,-0.37 20.07,1.11 14.59,7.42 21.89,17.81 2.43,-4.82 2.43,-37.1 0,-41.92 -3.04,4.82 0,15.21 -21.28,17.81 -10.95,1.48 -27.37,0.74 -39.53,0.37l-0.61 -83.47c16.42,0 52.3,-3.34 63.25,7.05 4.26,3.71 4.26,7.79 5.47,11.87l1.82 3.34c0,0 0.61,0.74 0.61,1.11l0 -29.31 -110.07 0c4.87,4.08 3.04,1.11 7.91,3.34z"/>
   <path class="fil1" d="M739.22 163.97c3.04,-13.73 9.12,-29.31 13.99,-43.78 3.04,-11.13 9.12,-35.24 14.6,-42.66l29.19 86.44 -57.77 0zm-13.38 41.18l10.95 -34.13 63.25 -0.37c4.26,14.1 21.28,54.16 18.24,67.89 -2.43,2.6 -3.65,3.34 -7.91,4.08l46.83 2.6c4.26,-0.74 1.22,0.37 3.04,-1.11 -8.51,-3.34 -13.38,0.74 -22.5,-21.89 -5.47,-12.98 -34.06,-96.45 -34.06,-101.28 -3.65,-4.08 -4.86,-9.27 -6.69,-14.84l-17.03 -47.12 -12.77 0.37c-11.55,32.28 -21.28,64.55 -32.23,97.57 -4.26,12.98 -19.46,62.69 -24.93,72.34 -4.86,9.64 -7.91,10.39 -18.85,14.84 1.21,0.74 0,0.74 3.65,1.11 1.82,0.37 3.65,0.37 6.08,0.37l32.84 -0.37c-6.69,-5.19 -24.32,1.48 -7.91,-40.07z"/>
   <path class="fil0" d="M740.43 525.68c-4.26,8.16 -2.43,3.34 -13.38,8.9 -0.61,0 -1.22,0.37 -1.22,0.74l109.47 0 6.69 -31.16c-8.51,7.79 -6.08,17.06 -17.64,22.26 -6.08,2.97 -53.52,10.76 -58.38,-10.02 -2.43,-8.16 -1.22,-98.31 -1.22,-110.92 0,-52.68 -1.22,-43.03 17.64,-52.68 0,-0.37 1.22,-0.37 1.22,-0.74 0,-0.74 0.61,-0.74 1.22,-1.11l-58.99 0c9.73,8.9 19.46,-1.85 19.46,32.28l0 99.05c0,7.79 0.61,31.16 -0.61,37.84 -1.22,2.97 -0.61,1.85 -1.83,3.71 -3.04,4.45 0.61,0.74 -2.43,1.86z"/>
   <path class="fil0" d="M1006.19 361.7c6.69,4.45 3.65,71.23 3.65,82.36 0,8.9 2.43,72.71 -2.43,79.76 -2.43,4.45 -0.61,1.86 -2.43,2.6 -5.47,7.79 -9.73,4.45 -14.6,8.53l58.38 0.37c-10.95,-10.02 -20.07,2.97 -19.46,-35.24 0,-18.92 -2.43,-127.99 2.43,-138 3.04,-6.68 5.47,-5.93 12.16,-8.16 6.08,-2.22 1.83,0.37 4.87,-2.6l-58.38 -0.37c1.22,2.23 7.3,3.34 9.12,4.08 6.69,2.23 4.87,1.86 6.69,6.68z"/>
   <path class="fil1" d="M779.96 35.24c2.43,-7.05 6.69,-9.27 12.16,-15.21 5.47,-5.94 5.47,-8.16 12.77,-13.73 -2.43,-2.22 3.04,-1.85 -4.86,-2.22 -10.34,0 -9.12,-1.48 -13.38,5.93l-21.28 35.24c10.34,-0.74 4.26,-5.94 14.6,-10.02z"/>
   <g>
    <path class="fil3" d="M154.22 158.92c-4.13,3.83 -19.16,10.12 -26.27,11.77l-5.62 2.46c-2.31,0.55 -1.65,1.09 -4.96,0.55 4.3,-0.27 9.42,-2.19 13.88,-3.01l44.61 -9.85 -1.82 3.28c-4.13,6.29 -15.36,13.95 -22.14,18.33 -0.5,0.27 -2.48,1.37 -3.31,1.92 -2.31,1.37 -4.63,2.74 -7.76,4.65 -1.98,1.37 -1.32,1.09 -3.97,2.46l-20.16 8.21c1.82,-1.91 21.81,-2.46 24.95,-2.74 0.66,0 18.67,-5.2 21.48,-4.1 3.64,-0.55 4.79,-1.64 8.59,-1.92 -1.65,2.19 -2.98,2.46 -5.12,4.1 -2.48,3.56 -14.37,8.75 -19.17,10.94 -26.77,11.22 -40.64,15.87 -69.89,15.87 1.82,0 13.22,2.46 15.69,3.01 11.4,2.74 45.6,0.55 57.17,-0.27 -1.82,1.92 1.49,0.27 -3.14,2.46 5.29,0 7.6,-1.09 13.88,-2.19 5.29,-1.09 7.6,-3.83 12.56,-4.92l-2.48 3.01c-0.33,5.2 0.99,1.91 -3.14,4.65l-11.57 8.21c-14.04,10.67 -17.68,12.58 -32.05,20.79 -5.62,3.28 -11.56,6.02 -18.5,7.66 -4.13,0.55 -7.27,2.46 -11.4,3.83 -4.13,1.37 -7.93,1.64 -12.89,3.01l23.3 -2.19c2.64,-2.19 17.35,-1.91 21.81,-3.01l10.91 -2.74c3.47,-1.09 6.44,-1.92 9.42,-3.01 16.19,-5.47 16.69,-7.11 23.13,-9.57 8.1,-2.74 1.65,-2.46 11.73,-6.84l1.32 -1.09c0.99,-3.01 -0.5,-1.91 2.81,-1.91 0.99,2.46 -0.83,5.75 -1.98,8.21 -6.44,14.23 -0.99,6.57 -12.56,24.62 -1.82,3.01 -2.64,5.2 -4.79,7.66 -0.83,1.37 -0.66,0.82 -1.49,1.64 -6.11,5.75 -17.84,14.5 -20.82,20.52 -0.33,0.82 -0.5,1.37 -0.99,2.19 -2.31,4.38 -9.58,11.77 -12.39,15.6 -4.13,5.74 -9.09,15.32 -11.23,22.71 0,0.27 -0.17,0.55 -0.17,0.82l-13.22 39.4c-1.82,4.92 -6.28,12.86 -7.27,17.51 -2.97,13.68 -1.49,6.84 -5.62,19.43 -2.31,6.57 -3.97,12.58 -6.11,19.43 -4.96,15.59 -6.78,24.9 -9.25,40.49 -1.16,7.11 -3.14,13.68 -3.97,21.61 -0.49,6.02 1.32,19.15 -3.8,21.61 -2.64,3.28 -0.16,1.09 0,1.09 3.47,2.46 1.16,-0.55 2.31,3.83l29.58 -100.96c6.28,-24.62 26.93,-66.48 38.99,-91.65l3.64 -6.57c2.15,-3.28 2.64,-2.46 5.12,-6.57 2.97,-4.92 5.45,-8.48 8.43,-13.13l8.76 -13.13c4.96,-6.29 4.46,-6.02 11.4,-10.94 9.25,-6.29 18.34,4.38 21.31,13.13 3.97,11.49 8.92,27.36 15.86,35.84 6.11,7.39 9.42,6.57 18.34,11.76 0,0 2.64,1.37 3.14,1.64l-7.43 -9.03 -8.92 -19.7c-1.65,-4.38 -2.48,-6.02 -3.8,-10.67 -4.63,-15.05 -3.96,-24.35 -5.78,-40.22 -3.3,-26.54 1.65,-35.02 0.17,-56.09 -1.65,-21.89 -1.16,-34.2 1.82,-56.09 0.83,-5.47 2.48,-4.92 3.47,-11.49 1.32,-7.66 8.76,-25.17 12.23,-33.65 3.8,-9.03 4.63,-13.95 8.59,-21.34 2.31,-4.38 2.81,-5.75 4.46,-10.12 2.15,-5.75 1.98,-5.75 6.77,-8.75 8.1,-5.2 24.12,-6.84 26.27,-18.06 0.83,-4.92 1.65,-7.11 0.33,-12.31 -2.97,-11.22 -12.23,-18.33 -22.3,-21.61 -6.44,-2.19 -17.18,-5.2 -21.31,-9.03l-6.44 -4.65c-1.98,-1.92 0.33,-0.82 -1.32,-1.64 6.94,22.16 10.08,29 16.85,48.15 5.62,15.87 3.8,9.3 1.32,19.97 -0.66,2.74 -0.33,4.65 -1.16,6.84 -1.32,3.56 -12.89,12.86 -16.36,16.96 -2.81,3.28 -4.62,5.74 -7.76,8.75 -1.98,1.91 -1.98,1.91 -3.8,4.38 -14.87,19.42 -18.84,21.61 -38.33,36.39 -6.44,4.92 -12.72,10.4 -20.65,13.41z"/>
    <path class="fil3" d="M296.31 539.21c13.55,1.37 22.8,-1.37 22.8,4.38 0,2.74 -2.97,8.48 -3.97,10.4 -3.14,6.29 -3.14,7.11 -8.43,10.4 -2.64,1.64 -0.33,0.27 -2.64,1.37 -20.32,9.85 -47.09,7.11 -65.76,-5.74l-7.93 -6.57c-2.48,-3.01 0.49,-3.01 -4.46,-4.92 -3.3,-1.37 -8.92,-0.82 -12.23,0.27 -0.33,0 -0.49,0.27 -0.82,0.27 -12.23,4.65 -20.16,17.24 -29.08,21.34 -6.61,3.28 -7.93,9.58 -20.32,17.24 -3.63,1.92 -1.98,1.37 -4.96,4.11 -7.27,6.84 -10.74,11.76 -10.57,25.72 0,13.13 -0.5,22.98 -5.29,33.1 -4.46,9.58 -5.95,10.67 -11.57,16.42 -3.14,3.28 -0.83,2.46 -3.3,5.74 -1.32,1.92 -2.97,2.74 -4.96,4.65 -7.44,7.66 -13.71,15.6 -22.47,24.08 -4.96,4.65 -13.55,14.77 -16.69,20.52l-5.12 8.21c-5.45,13.68 7.77,21.61 17.02,25.72 10.08,4.38 17.68,6.29 29.25,4.65 4.29,-0.27 24.45,-4.92 27.43,-9.3 -0.99,-0.55 -14.54,0.27 -17.68,0.27 -3.3,-0.27 -6.94,-0.27 -9.75,-1.09 -0.33,-0.27 -1.16,-0.55 -1.49,-0.82l-7.27 -1.64c-2.31,-1.09 -3.97,-3.01 -5.62,-4.65l-5.29 -6.29c-1.82,-3.56 -1.32,-13.13 -0.83,-18.06l0.66 -3.01c0.82,-0.82 5.12,-12.31 12.06,-15.59 4.13,-1.92 13.55,-8.21 19.83,-6.84 4.46,0.82 9.42,4.38 14.54,3.28 -1.32,-13.68 -1.65,-32.83 4.13,-45.69 0.66,-1.64 1.32,-2.46 2.15,-5.2 7.93,-25.17 5.12,-13.13 18.18,-26.26 3.96,-4.1 3.14,-4.1 4.46,-9.85 1.98,-9.85 3.97,-15.05 7.6,-22.71 5.29,-11.22 6.77,-7.94 19.17,-10.12 4.46,-0.82 9.58,-1.37 14.21,-0.82 7.93,0.55 46.92,19.15 86.08,1.37 4.29,-1.92 14.54,-8.21 17.18,-11.77l20.16 -24.35c6.11,-8.48 12.23,-18.6 14.54,-28.73 4.46,-19.15 6.94,-30.92 6.11,-51.16 -0.66,4.38 -1.49,3.28 -1.82,7.11 -0.83,5.47 0.5,3.28 -1.49,7.94 -9.58,21.89 -13.38,27.63 -31.39,44.59 -13.22,12.59 -19.99,14.23 -38.33,16.42l3.97 1.64z"/>
    <path class="fil3" d="M366.19 77.94c6.78,-5.75 3.14,-2.74 8.43,-10.12l1.82 -3.28c4.63,-10.94 8.59,-30.92 13.88,-44.87 1.49,-3.83 1.32,-6.02 2.97,-7.11 -0.66,1.92 -9.91,7.11 -14.87,11.77l-19.16 16.96c-9.75,10.12 -12.56,-4.38 -36.68,-3.83 -6.11,0 -10.91,2.46 -16.03,4.1l-12.72 5.2c4.13,0.27 7.93,0 11.73,-0.27 19.17,-0.55 32.55,13.13 44.61,25.72 6.28,6.57 9.91,15.59 13.38,23.8l2.31 7.93c2.15,8.48 2.15,13.41 6.44,29 3.64,13.13 -1.32,30.64 -4.63,42.95 -2.15,7.39 -2.81,12.59 -3.47,20.25 -1.82,19.43 0.99,23.26 -6.45,41.31 -11.23,26.54 -3.47,51.98 -16.03,59.37l-4.96 2.74c-19.33,5.47 -5.12,-6.02 -22.8,-18.33 -5.29,-3.56 -5.62,-2.46 -8.09,-8.48 -1.16,-3.01 -3.31,-8.21 -3.64,-11.77 -2.48,-28.73 -8.1,-53.9 -16.03,-80.71 -6.11,-20.79 -12.56,-17.24 -4.3,-53.9l5.78 -25.45c-5.62,2.46 -10.74,19.43 -12.89,25.45 -3.97,10.4 -6.77,18.33 -8.92,29 -4.29,21.34 -1.98,32.28 7.93,48.15l7.43 11.22c4.3,6.29 9.09,19.15 10.57,27.63 2.48,12.86 0.5,23.53 1.49,36.66 2.31,26.26 12.06,35.84 37.67,38.3 4.29,0.55 12.06,-1.64 16.52,-3.01 7.44,-2.46 6.61,-2.19 9.58,-9.03 9.09,-20.79 0.5,-34.47 9.75,-72.23 0.49,-1.64 0.66,-2.74 0.99,-4.11 2.15,-8.21 3.47,-9.3 4.63,-13.95 3.14,-12.31 8.59,-47.06 8.43,-58.27 -0.17,-15.6 -0.99,-16.41 -5.62,-32.28 -1.32,-4.92 -3.3,-9.85 -4.13,-15.05 -0.49,-4.11 -2.64,-9.58 -3.63,-14.5 -0.99,-4.38 -0.83,-12.31 -1.32,-16.96z"/>
    <path class="fil3" d="M366.19 77.94c0.5,4.65 0.33,12.58 1.32,16.96 0.99,4.92 3.14,10.4 3.63,14.5 0.83,5.2 2.81,10.12 4.13,15.05 4.63,15.87 5.45,16.69 5.62,32.28 0.16,11.22 -5.29,45.96 -8.43,58.27 -1.16,4.65 -2.48,5.74 -4.63,13.95 -0.33,1.37 -0.5,2.46 -0.99,4.11 -9.25,37.75 -0.66,51.43 -9.75,72.23 -2.97,6.84 -2.15,6.57 -9.58,9.03 -4.46,1.37 -12.23,3.56 -16.52,3.01 -25.61,-2.46 -35.36,-12.04 -37.67,-38.3 -0.99,-13.13 0.99,-23.8 -1.49,-36.66 -1.49,-8.48 -6.28,-21.34 -10.57,-27.63l-7.43 -11.22c-9.91,-15.87 -12.23,-26.81 -7.93,-48.15 2.15,-10.67 4.96,-18.6 8.92,-29 2.15,-6.02 7.27,-22.98 12.89,-25.45l-5.78 25.45c-8.26,36.66 -1.82,33.1 4.3,53.9 7.93,26.81 13.55,51.98 16.03,80.71 0.33,3.56 2.48,8.75 3.64,11.77 2.48,6.02 2.81,4.92 8.09,8.48 17.68,12.31 3.47,23.8 22.8,18.33l4.96 -2.74c12.56,-7.39 4.79,-32.83 16.03,-59.37 7.44,-18.06 4.63,-21.89 6.45,-41.31 0.66,-7.66 1.32,-12.86 3.47,-20.25 3.31,-12.31 8.26,-29.82 4.63,-42.95 -4.29,-15.59 -4.29,-20.52 -6.44,-29l-2.31 -7.93c-3.47,-8.21 -7.1,-17.24 -13.38,-23.8 -12.06,-12.58 -25.44,-26.26 -44.61,-25.72 -3.8,0.27 -7.6,0.55 -11.73,0.27l12.72 -5.2c5.12,-1.64 9.91,-4.1 16.03,-4.1 24.12,-0.55 26.93,13.95 36.68,3.83l19.16 -16.96c4.96,-4.65 14.21,-9.85 14.87,-11.77 -1.65,1.09 -1.49,3.28 -2.97,7.11 -5.29,13.95 -9.25,33.92 -13.88,44.87l-1.82 3.28c-5.29,7.39 -1.65,4.38 -8.43,10.12zm-13.71 -36.11l-11.23 -4.38c-8.26,-2.74 -17.35,-4.65 -25.94,-1.92l-11.73 3.56c-2.15,0.82 -5.12,2.19 -7.27,3.28 -3.31,1.64 -4.3,1.37 -4.79,5.47 23.13,5.47 27.43,-7.39 57.17,25.72 3.64,4.1 5.62,7.39 8.26,12.58 9.09,18.06 5.95,24.9 11.89,44.87 2.31,7.93 1.32,15.05 1.32,25.72l-4.3 15.32c-1.32,6.29 -2.31,9.03 -3.14,16.69 -3.3,36.66 2.81,17.78 -8.59,51.16 -1.16,3.28 -1.82,5.2 -2.48,7.93 -3.8,14.77 -3.63,24.35 -6.28,39.4l-0.83 3.28c-0.83,3.01 -3.47,5.2 -7.1,6.57 -1.65,0.55 -3.31,0.55 -5.45,0.82 -9.09,0.82 -1.82,-0.55 -8.1,-10.94 -5.29,-8.75 -14.21,-7.66 -17.84,-22.43l-3.14 -23.8c-1.98,-15.32 -4.79,-30.92 -9.09,-43.77l-5.95 -21.07c-7.27,-18.6 -9.58,-23.53 -3.14,-47.88 2.81,-10.67 4.79,-15.87 4.79,-27.36 0,-5.47 -5.12,-1.09 -6.11,0.27 -4.62,5.75 -17.02,40.22 -18.5,46.51 -3.8,15.32 -4.96,26.26 -1.16,41.31 3.8,15.87 26.93,33.65 26.77,66.21 -0.17,31.46 -0.99,54.72 29.9,63.2 11.24,3.28 21.98,2.46 31.56,-3.56 5.45,-3.28 8.26,-10.12 10.74,-16.14 2.31,-6.57 3.14,-41.04 3.31,-49.52 0,-8.75 8.59,-30.64 11.07,-41.59l3.96 -22.16c0.66,-4.38 0.17,-8.21 0.83,-12.58 3.64,-22.16 2.15,-29.55 -4.63,-51.16l-2.97 -12.31c-0.5,-3.56 0.33,-1.37 -0.99,-4.38 -1.65,-4.11 -1.49,-1.64 -2.48,-7.66l-1.65 -19.15c1.32,-0.82 1.49,-0.82 2.81,-2.19 8.1,-8.48 13.05,-27.91 15.86,-38.03 0.66,-2.46 0.66,-2.19 1.32,-4.92l4.63 -13.95c1.98,-4.38 2.97,-5.75 3.14,-9.3 -11.57,0.27 -34.7,25.99 -40.98,30.37 -2.81,2.19 0.33,1.92 -3.47,1.92z"/>
    <path class="fil3" d="M217 474.92l1.98 7.39c0.99,2.74 1.16,4.1 1.82,7.39 0.49,2.74 0.99,4.38 1.98,7.11l2.97 6.29c0.16,-4.11 3.96,-16.96 5.95,-19.97 4.79,-15.05 10.41,-28.73 18.67,-42.41l13.88 -23.26c-8.76,-4.92 -4.46,-2.74 -9.58,-8.48 -2.31,-2.46 -5.12,-5.75 -7.44,-9.3 -7.1,-10.67 -5.45,-9.3 -7.43,-16.96 -1.16,-4.38 -4.79,-7.66 -6.94,0.55l-5.12 18.06c-7.44,23.53 -14.38,29.55 -14.05,47.33 0.17,9.3 1.16,17.78 3.31,26.26z"/>
    <path class="fil3" d="M3.54 725.25c0.66,-1.37 1.32,-3.01 1.82,-4.65 -0.33,0 -0.99,0.27 -1.16,0.27 -5.95,0.27 3.3,2.19 -1.32,-0.82 2.15,-7.39 11.4,-21.07 15.53,-29.55 3.14,-6.57 8.76,-14.23 12.89,-19.97 2.48,-3.56 0.66,-2.74 4.13,-6.02 4.46,-4.1 1.32,0 5.12,-6.57 2.97,-4.65 3.14,-2.46 7.1,-10.12l5.78 -9.85c4.79,-10.12 7.6,-25.17 7.93,-36.39 -8.92,0 -15.7,6.02 -22.8,12.04 -3.14,2.46 -3.14,2.46 -5.78,5.47l-3.3 3.01c-1.82,1.64 -0.99,0.55 -2.48,2.74 -12.72,17.78 -11.23,24.35 -15.2,41.31l-4.13 18.88c-2.15,7.39 -2.31,33.38 -5.95,39.12l0.66 0.55c0,0 0.33,0.27 0.33,0.27 0,0 0.33,0.27 0.5,0 0,0 0.16,0.27 0.33,0.27z"/>
    <path class="fil3" d="M152.07 157.83c3.8,-1.64 1.32,-1.09 2.15,1.09 7.93,-3.01 14.21,-8.48 20.65,-13.41 19.5,-14.77 23.46,-16.96 38.33,-36.39 1.82,-2.46 1.82,-2.46 3.8,-4.38 3.14,-3.01 4.96,-5.47 7.76,-8.75 3.47,-4.11 15.04,-13.41 16.36,-16.96 0.83,-2.19 0.5,-4.1 1.16,-6.84 2.48,-10.67 4.3,-4.1 -1.32,-19.97 -6.77,-19.15 -9.91,-25.99 -16.85,-48.15 1.65,0.82 -0.66,-0.27 1.32,1.64l6.44 4.65c4.13,3.83 14.87,6.84 21.31,9.03 10.08,3.28 19.33,10.4 22.3,21.61 1.32,5.2 0.5,7.39 -0.33,12.31 -2.15,11.22 -18.17,12.86 -26.27,18.06 -4.79,3.01 -4.63,3.01 -6.77,8.75 -1.65,4.38 -2.15,5.75 -4.46,10.12 -3.97,7.39 -4.79,12.31 -8.59,21.34 -3.47,8.48 -10.9,25.99 -12.23,33.65 -0.99,6.57 -2.64,6.02 -3.47,11.49 -2.97,21.89 -3.47,34.2 -1.82,56.09 1.49,21.07 -3.47,29.55 -0.17,56.09 1.82,15.87 1.16,25.17 5.78,40.22 1.32,4.65 2.15,6.29 3.8,10.67l8.92 19.7c-0.33,-3.28 -1.16,-2.74 1.82,-2.74 -3.63,-7.93 -5.29,-9.03 -8.76,-19.15l-3.96 -10.4c-5.45,-11.77 -6.11,-55.81 -4.96,-68.67 1.49,-17.51 0.16,-42.13 0,-60.19 0,-16.41 5.45,-33.38 10.74,-49.25l20.32 -48.97c0.17,-0.27 0.33,-0.55 0.33,-0.82 2.48,-5.2 2.48,-6.02 9.58,-9.03l1.49 -0.55c0.33,0 0.5,0 0.83,-0.27 13.88,-5.2 19,-7.11 21.31,-19.97 2.97,-16.14 -10.74,-27.91 -25.61,-33.38 -20.65,-7.11 -11.07,-2.46 -24.78,-12.59 -2.31,-1.64 -2.15,-1.91 -5.95,-2.19 0,8.48 4.63,19.43 6.94,26.26 3.14,9.58 13.05,31.46 12.72,36.66 -1.32,15.59 -9.42,19.7 -19.33,30.64l-31.56 34.75c-3.47,3.28 -5.95,4.1 -9.25,7.11l-24.45 16.96c-0.66,0.55 -1.65,1.09 -2.48,1.64l-2.81 2.46z"/>
    <path class="fil3" d="M294.65 541.95c3.14,0 2.15,0.55 1.65,-2.74l-3.97 -1.64c18.34,-2.19 25.11,-3.83 38.33,-16.42 18.01,-16.96 21.81,-22.71 31.39,-44.59 1.98,-4.65 0.66,-2.46 1.49,-7.94 0.33,-3.83 1.16,-2.74 1.82,-7.11 0.82,20.24 -1.65,32.01 -6.11,51.16 -2.31,10.12 -8.43,20.25 -14.54,28.73l-20.16 24.35c-2.65,3.56 -12.89,9.85 -17.18,11.77 -39.16,17.78 -78.15,-0.82 -86.08,-1.37 -4.62,-0.55 -9.75,0 -14.21,0.82 -12.39,2.19 -13.88,-1.09 -19.17,10.12 -3.63,7.66 -5.62,12.86 -7.6,22.71 -1.32,5.75 -0.5,5.75 -4.46,9.85 -13.05,13.13 -10.24,1.09 -18.18,26.26 -0.82,2.74 -1.49,3.56 -2.15,5.2 -5.78,12.86 -5.45,32.01 -4.13,45.69 -5.12,1.09 -10.08,-2.46 -14.54,-3.28 -6.28,-1.37 -15.7,4.92 -19.83,6.84 -6.94,3.28 -11.24,14.77 -12.06,15.59l0.33 4.38c0.83,-1.64 1.65,-1.37 2.31,-1.91 0.49,-4.38 2.64,-7.93 4.96,-10.94 4.63,-5.74 17.02,-11.49 22.14,-11.49 1.32,0 0.33,0 2.31,0.82 4.29,1.64 5.45,2.74 10.9,2.74 14.87,0.27 -1.65,-11.22 9.09,-44.05 1.98,-6.02 2.15,-2.74 3.64,-9.58 0.99,-5.2 1.98,-7.66 4.46,-12.04 5.78,-10.4 14.04,-6.29 18.34,-24.35 1.65,-7.11 2.64,-13.4 5.95,-19.7 5.45,-10.12 7.27,-10.4 24.62,-10.67 8.92,0 9.09,0 15.53,2.19 22.3,7.11 57,9.85 78.98,-1.64 2.31,-1.37 3.3,-2.19 5.78,-3.56 9.25,-4.92 27.43,-24.35 33.54,-34.75 2.31,-4.1 3.8,-6.57 6.45,-10.12 7.6,-11.76 9.75,-28.45 12.22,-39.67 1.65,-7.66 3.47,-26.26 0.5,-32.56l-4.13 0 -2.97 15.6c-0.83,1.92 -1.82,4.38 -2.64,6.57l-2.97 6.57c-7.6,16.41 -31.23,42.41 -49.4,44.87 -3.47,0.27 -4.46,0.55 -8.1,1.09 -3.8,0.55 -5.29,0.27 -7.27,3.01 0.99,4.1 1.16,2.46 5.12,5.2z"/>
    <path class="fil3" d="M294.65 541.95c7.1,0 8.92,1.37 17.51,0.55 2.15,0 4.63,-1.37 3.97,3.28 -0.33,2.19 -5.62,13.95 -12.39,17.51 -15.37,8.48 -45.27,7.11 -63.11,-4.65 -11.57,-7.66 -8.92,-15.05 -23.63,-13.13 -5.45,0.82 -8.59,2.74 -13.05,6.02l-27.26 21.34c-2.81,2.19 -2.48,3.01 -4.96,5.2 -12.06,10.67 -23.46,14.77 -26.44,32.83 -1.98,12.86 0.83,25.44 -3.64,35.57 -6.11,14.77 -11.56,16.41 -15.36,24.08 -2.15,4.65 -1.16,1.91 -4.3,4.92 -1.98,1.64 -7.6,9.3 -14.7,15.32 -9.09,7.66 -32.05,34.2 -32.88,45.96 -0.33,6.29 3.3,10.4 6.44,13.41 10.57,10.12 29.9,14.77 45.27,13.41 6.77,-0.82 16.85,-3.83 22.64,-6.29 5.12,-2.46 2.48,-0.27 7.43,-4.1 -1.16,-1.92 2.31,-0.27 -1.32,-1.64 -4.63,-2.19 0.16,-0.82 -2.64,-0.27 -2.98,4.38 -23.13,9.03 -27.43,9.3 -11.57,1.64 -19.17,-0.27 -29.25,-4.65 -9.25,-4.1 -22.47,-12.04 -17.02,-25.72l5.12 -8.21c3.14,-5.75 11.73,-15.87 16.69,-20.52 8.76,-8.48 15.03,-16.42 22.47,-24.08 1.98,-1.91 3.63,-2.74 4.96,-4.65 2.48,-3.28 0.16,-2.46 3.3,-5.74 5.62,-5.75 7.1,-6.84 11.57,-16.42 4.79,-10.12 5.29,-19.97 5.29,-33.1 -0.17,-13.95 3.3,-18.88 10.57,-25.72 2.97,-2.74 1.32,-2.19 4.96,-4.11 12.39,-7.66 13.71,-13.95 20.32,-17.24 8.92,-4.1 16.85,-16.69 29.08,-21.34 0.33,0 0.49,-0.27 0.82,-0.27 3.31,-1.09 8.92,-1.64 12.23,-0.27 4.96,1.92 1.98,1.92 4.46,4.92l7.93 6.57c18.67,12.86 45.44,15.59 65.76,5.74 2.31,-1.09 0,0.27 2.64,-1.37 5.29,-3.28 5.29,-4.1 8.43,-10.4 0.99,-1.92 3.97,-7.66 3.97,-10.4 0,-5.74 -9.25,-3.01 -22.8,-4.38 0.49,3.28 1.49,2.74 -1.65,2.74z"/>
    <path class="fil3" d="M70.45 525.26l0 6.29c5.62,0 4.79,0.27 9.09,-12.58l24.78 -85.91c2.98,-10.94 12.89,-38.58 17.68,-48.43l10.24 -22.16c1.32,-2.74 2.31,-4.65 3.64,-7.66 2.48,-6.02 4.62,-9.85 7.1,-15.59 1.32,-2.74 1.82,-4.38 3.3,-7.11l13.88 -20.24c2.97,-4.65 5.62,-8.48 8.59,-13.13 1.82,-2.74 2.98,-3.83 5.29,-6.02 3.64,-3.56 4.46,-3.28 5.95,-6.57l-1.32 0c-6.94,4.92 -6.44,4.65 -11.4,10.94l-8.76 13.13c-2.97,4.65 -5.45,8.21 -8.43,13.13 -2.48,4.1 -2.97,3.28 -5.12,6.57l-3.64 6.57c-12.06,25.17 -32.71,67.03 -38.99,91.65l-29.58 100.96c-1.16,-4.38 1.16,-1.37 -2.31,-3.83z"/>
    <path class="fil3" d="M183.3 242.64c1.16,3.01 -3.63,11.77 -5.78,16.14 -1.32,3.01 -2.48,5.47 -4.13,8.21 -1.82,3.01 -3.3,4.65 -4.96,7.66 -6.28,11.22 -17.02,16.14 -24.29,25.17 -2.48,3.01 -2.31,4.11 -5.29,7.39 -7.93,8.75 -16.69,21.89 -20.16,33.38l-18.51 51.98c-1.16,3.01 -2.97,5.74 -3.63,8.75 -1.16,4.65 -1.16,6.29 -2.31,10.12l-6.61 18.33c-6.28,14.77 -13.71,54.44 -16.03,70.86 -0.5,4.1 0,8.21 -0.16,12.31 -0.17,5.2 -0.99,5.75 -0.99,11.22 5.12,-2.46 3.31,-15.6 3.8,-21.61 0.83,-7.94 2.81,-14.5 3.97,-21.61 2.48,-15.6 4.3,-24.9 9.25,-40.49 2.15,-6.84 3.8,-12.86 6.11,-19.43 4.13,-12.58 2.64,-5.75 5.62,-19.43 0.99,-4.65 5.45,-12.58 7.27,-17.51l13.22 -39.4c0,-0.27 0.17,-0.55 0.17,-0.82 2.15,-7.39 7.1,-16.96 11.23,-22.71 2.81,-3.83 10.08,-11.22 12.39,-15.6 0.49,-0.82 0.66,-1.37 0.99,-2.19 2.97,-6.02 14.7,-14.77 20.82,-20.52 0.83,-0.82 0.66,-0.27 1.49,-1.64 2.15,-2.46 2.97,-4.65 4.79,-7.66 11.57,-18.06 6.11,-10.4 12.56,-24.62 1.16,-2.46 2.97,-5.75 1.98,-8.21 -3.31,0 -1.82,-1.09 -2.81,1.91z"/>
    <path class="fil3" d="M3.54 725.25c-0.17,0 -0.33,-0.27 -0.33,-0.27 -0.17,0.27 -0.5,0 -0.5,0 0,0 -0.33,-0.27 -0.33,-0.27l-0.66 -0.55c3.63,-5.75 3.8,-31.74 5.95,-39.12l4.13 -18.88c3.97,-16.96 2.48,-23.53 15.2,-41.31 1.49,-2.19 0.66,-1.09 2.48,-2.74l3.3 -3.01c2.64,-3.01 2.64,-3.01 5.78,-5.47 7.1,-6.02 13.88,-12.04 22.8,-12.04 -0.33,11.22 -3.14,26.26 -7.93,36.39l-5.78 9.85c-3.97,7.66 -4.13,5.47 -7.1,10.12 -3.8,6.57 -0.66,2.46 -5.12,6.57 -3.47,3.28 -1.65,2.46 -4.13,6.02 -4.13,5.74 -9.75,13.41 -12.89,19.97 -4.13,8.48 -13.38,22.16 -15.53,29.55 4.63,3.01 -4.62,1.09 1.32,0.82 0.17,0 0.83,-0.27 1.16,-0.27l27.59 -49.52c8.42,-10.4 10.74,-10.12 19,-25.45 4.46,-8.48 2.97,-2.74 7.1,-14.5l2.64 -9.03c1.82,-6.57 2.48,-11.77 2.48,-19.97 -7.11,-4.92 -9.09,-3.28 -15.7,1.64 -2.31,1.64 -1.82,1.09 -3.97,2.19 -8.09,4.1 -12.72,10.4 -17.02,13.95 -6.77,5.75 -11.9,19.7 -14.54,28.18l-10.74 57.45c0.17,12.58 -4.3,15.05 -0.99,21.89 2.48,-0.82 0.99,0 2.31,-2.19z"/>
    <path class="fil3" d="M207.91 599.4c-3.8,3.56 -9.75,7.39 -14.05,13.41 -14.04,18.88 -14.87,16.96 -22.47,40.77l-3.8 14.77c-0.33,3.83 -0.49,16.69 -5.12,21.89 -3.31,3.83 -2.81,-0.27 -4.3,4.92 8.59,4.1 18.17,-7.11 21.48,-14.77 1.65,-3.83 2.15,-15.32 4.63,-25.44l4.29 -13.13c1.49,-3.01 1.82,-3.56 3.31,-6.02 2.81,-4.65 4.29,-8.21 6.94,-12.86 3.97,-6.84 13.05,-16.41 13.22,-25.17l-2.15 1.09c-0.16,4.65 -1.32,3.83 -6.28,10.4 -1.49,2.19 -4.96,7.93 -6.61,10.94 -2.31,4.38 -4.13,7.11 -6.28,11.49 -5.29,10.67 -3.64,4.65 -7.6,18.06 -3.14,10.67 -3.31,24.9 -8.76,34.75 -3.14,5.47 -2.98,6.57 -10.25,7.93 8.59,-15.32 3.64,-27.91 15.7,-53.9 1.49,-3.28 3.14,-7.39 5.45,-10.4l22.8 -26.81c0,0 0,-0.55 0,-0.55 0,-0.27 -0.16,-0.55 -0.16,-0.55 0,-0.27 0,-0.55 0,-0.82z"/>
    <path class="fil3" d="M209.9 598.85l-1.98 0.55c0,0.27 0,0.55 0,0.82 0,0 0.16,0.27 0.16,0.55 0,0 0,0.55 0,0.55l-22.8 26.81c-2.31,3.01 -3.97,7.11 -5.45,10.4 -12.06,25.99 -7.1,38.58 -15.7,53.9 7.27,-1.37 7.11,-2.46 10.25,-7.93 5.45,-9.85 5.62,-24.08 8.76,-34.75 3.96,-13.41 2.31,-7.39 7.6,-18.06 2.15,-4.38 3.96,-7.11 6.28,-11.49 1.65,-3.01 5.12,-8.75 6.61,-10.94 4.96,-6.57 6.11,-5.75 6.28,-10.4z"/>
    <path class="fil3" d="M215.02 480.66c0.33,-0.27 0.66,-1.09 0.83,-0.82 0,0 0.49,-0.82 0.49,-1.09 0.99,-3.01 0.5,-0.55 0.66,-3.83 -2.15,-8.48 -3.14,-16.96 -3.31,-26.26 -0.33,-17.78 6.61,-23.8 14.05,-47.33l5.12 -18.06c2.15,-8.21 5.78,-4.92 6.94,-0.55 1.98,7.66 0.33,6.29 7.43,16.96 2.31,3.56 5.12,6.84 7.44,9.3 5.12,5.75 0.83,3.56 9.58,8.48l-13.88 23.26c-8.26,13.68 -13.88,27.36 -18.67,42.41 -0.16,0.82 -0.66,1.92 1.98,-0.27 1.49,-1.09 3.97,-10.94 6.61,-16.14l8.26 -16.69c1.65,-3.01 2.31,-5.2 4.13,-8.21l14.04 -23.25c-4.13,-6.02 -10.9,-10.4 -16.03,-18.06 -1.32,-1.92 -2.15,-3.01 -3.3,-4.92 -1.65,-2.46 -1.65,-3.28 -2.81,-6.57 -1.65,-4.38 -2.81,-8.75 -4.63,-12.86l-7.27 0c-2.65,5.47 -3.47,14.77 -7.27,24.9 -2.98,7.93 -5.29,16.96 -8.59,23.53 -11.73,23.26 -3.3,32.56 -1.82,56.09z"/>
    <path class="fil3" d="M127.95 170.69l-1.65 0.27c-3.64,-1.09 -4.13,-0.82 -7.11,0.27 -3.63,1.37 -3.8,2.19 -4.29,4.1 11.07,0 19.83,-1.92 28.58,-4.38l4.29 -1.09c0.17,0 0.5,0 0.83,0l22.14 -6.02c-3.3,4.92 -10.74,9.85 -16.03,13.13 -11.07,7.11 -28.58,17.24 -40.97,19.97l0 4.38c17.84,0 11.07,-1.09 26.93,-2.19l20.32 -4.38c3.63,-1.91 0.99,-0.55 2.15,-1.91 -2.81,-1.09 -20.82,4.1 -21.48,4.1 -3.14,0.27 -23.13,0.82 -24.95,2.74l20.16 -8.21c2.64,-1.37 1.98,-1.09 3.97,-2.46 3.14,-1.92 5.45,-3.28 7.76,-4.65 0.83,-0.55 2.81,-1.64 3.31,-1.92 6.77,-4.38 18.01,-12.04 22.14,-18.33l1.82 -3.28 -44.61 9.85c-4.46,0.82 -9.58,2.74 -13.88,3.01 3.3,0.55 2.64,0 4.96,-0.55l5.62 -2.46z"/>
    <path class="fil3" d="M147.28 227.04c4.63,-2.19 1.32,-0.55 3.14,-2.46 -11.56,0.82 -45.77,3.01 -57.17,0.27 -2.48,-0.55 -13.88,-3.01 -15.69,-3.01 29.24,0 43.12,-4.65 69.89,-15.87 4.79,-2.19 16.69,-7.39 19.17,-10.94 -5.12,0 -12.39,5.75 -20.16,8.75 -29.24,12.31 -42.46,16.14 -72.86,16.14 0.33,4.65 3.47,5.74 13.55,7.11 6.78,0.82 11.9,1.09 19.5,1.09 6.78,0 13.71,0 20.65,0l19.99 -1.09z"/>
    <path class="fil3" d="M152.23 751.24c2.81,-0.55 -1.98,-1.91 2.64,0.27 3.63,1.37 0.16,-0.27 1.32,1.64 -0.16,-3.01 -0.99,-4.1 -2.15,-6.29 -19.33,0 -15.2,3.56 -35.19,-0.82 -12.23,-2.74 -11.23,-16.96 -11.23,-27.63 -0.66,0.55 -1.49,0.27 -2.31,1.91l-0.33 -4.38 -0.66 3.01c-0.49,4.92 -0.99,14.5 0.83,18.06l5.29 6.29c1.65,1.64 3.31,3.56 5.62,4.65l7.27 1.64c0.33,0.27 1.15,0.55 1.49,0.82 2.81,0.82 6.44,0.82 9.75,1.09 3.14,0 16.69,-0.82 17.68,-0.27z"/>
    <path class="fil3" d="M179.99 286.14c5.29,1.91 11.23,-2.19 17.02,12.04 6.44,15.59 5.62,24.9 16.85,38.85 2.64,3.28 12.23,10.67 16.85,11.22 1.49,-1.64 -2.48,-1.37 3.47,-1.37 -8.92,-5.2 -12.23,-4.38 -18.34,-11.76 -6.94,-8.48 -11.9,-24.35 -15.86,-35.84 -2.97,-8.75 -12.06,-19.43 -21.31,-13.13l1.32 0z"/>
    <path class="fil3" d="M104.98 268.9l-0.33 2.74c27.76,-2.46 51.38,-9.03 74.02,-24.08 2.97,-1.91 2.15,0.55 3.31,-3.83 -10.08,4.38 -3.64,4.1 -11.73,6.84 -6.44,2.46 -6.94,4.1 -23.13,9.57 -2.97,1.09 -5.95,1.92 -9.42,3.01l-10.91 2.74c-4.46,1.09 -19.16,0.82 -21.81,3.01z"/>
    <path class="fil3" d="M104.49 261.52c3.14,0 2.15,-0.82 1.49,2.74 6.94,-1.64 12.89,-4.38 18.5,-7.66 14.38,-8.21 18.01,-10.12 32.05,-20.79l11.57 -8.21c4.13,-2.74 2.81,0.55 3.14,-4.65 -4.13,1.64 -11.07,7.66 -15.7,10.67 -19.5,13.68 -12.23,9.85 -32.55,20.25 -3.63,1.91 -14.37,7.11 -18.5,7.66z"/>
    <path class="fil3" d="M215.02 480.66c4.13,4.1 4.13,23.53 10.41,28.18 3.14,-2.46 2.81,-4.92 4.79,-11.76 1.49,-5.47 2.64,-8.75 3.47,-14.23 -2.64,2.19 -2.15,1.09 -1.98,0.27 -1.98,3.01 -5.78,15.87 -5.95,19.97l-2.97 -6.29c-0.99,-2.74 -1.49,-4.38 -1.98,-7.11 -0.66,-3.28 -0.83,-4.65 -1.82,-7.39l-1.98 -7.39c-0.17,3.28 0.33,0.82 -0.66,3.83 0,0.27 -0.49,1.09 -0.49,1.09 -0.17,-0.27 -0.5,0.55 -0.83,0.82z"/>
    <path class="fil3" d="M77.72 269.45c0.17,0.27 0.66,0.27 0.83,0.82 0.17,0.55 0.66,0.55 0.99,0.55 6.44,1.64 -2.31,0.55 2.15,0.27 4.96,-1.37 8.76,-1.64 12.89,-3.01 4.13,-1.37 7.27,-3.28 11.4,-3.83 0.66,-3.56 1.65,-2.74 -1.49,-2.74l-26.77 7.93z"/>
    <path class="fil3" d="M104.65 271.64l0.33 -2.74 -23.3 2.19c-4.46,0.27 4.29,1.37 -2.15,-0.27 -0.33,0 -0.82,0 -0.99,-0.55 -0.17,-0.55 -0.66,-0.55 -0.83,-0.82 -8.26,4.38 5.12,4.65 9.09,4.1 3.31,-0.27 3.64,-0.82 8.43,-0.82 5.29,0 5.45,-0.82 9.42,-1.09z"/>
    <path class="fil3" d="M126.3 170.96l1.65 -0.27c7.11,-1.64 22.14,-7.94 26.27,-11.77 -0.82,-2.19 1.65,-2.74 -2.15,-1.09l-18.84 9.03c-0.66,0.27 -3.63,1.09 -3.8,1.37 -3.96,1.64 -1.49,0.27 -3.14,2.74z"/>
    <path class="fil3" d="M234.18 346.88c-5.95,0 -1.98,-0.27 -3.47,1.37 3.47,1.64 10.08,3.83 7.43,-2.19 -0.33,-0.55 -2.64,-3.56 -3.14,-4.38 -1.49,-1.92 -1.65,-2.46 -3.3,-4.92 -2.97,0 -2.15,-0.55 -1.82,2.74l7.43 9.03c-0.49,-0.27 -3.14,-1.64 -3.14,-1.64z"/>
   </g>
   <path class="fil4" d="M594.69 642.66l-16.2 0 0 49.7 -7.29 0 0 -49.7 -16.13 0 0 -6.45 39.62 0 0 6.45zm59.33 49.7l-8.55 0 -9.32 -15.59c-1.86,-3.12 -3.56,-5.23 -5.11,-6.36 -1.55,-1.13 -3.39,-1.68 -5.54,-1.68l-5.22 0 0 23.63 -7.25 0 0 -56.15 17.11 0c5.46,0 9.74,1.31 12.83,3.95 3.09,2.64 4.64,6.32 4.64,11.06 0,7.78 -4.16,12.83 -12.47,15.15l0 0.19c1.55,0.66 2.88,1.58 4.01,2.8 1.12,1.2 2.57,3.27 4.37,6.2l10.51 16.82zm-33.74 -49.8l0 19.82 8.55 0c3.32,0 6,-0.96 8.07,-2.89 2.07,-1.94 3.11,-4.48 3.11,-7.61 0,-2.93 -0.95,-5.21 -2.83,-6.85 -1.88,-1.65 -4.63,-2.46 -8.23,-2.46l-8.66 0zm81.12 49.8l-30.19 0 0 -56.15 28.93 0 0 6.45 -21.68 0 0 17.98 20.08 0 0 6.42 -20.08 0 0 18.88 22.94 0 0 6.42zm27.6 -56.15l0 56.15 -7.25 0 0 -56.15 7.25 0zm70.15 56.15l-8.59 0 -28.25 -43.68c-0.79,-1.24 -1.44,-2.46 -1.92,-3.66l-0.21 0c0.19,1.25 0.29,3.87 0.29,7.87l0 39.47 -7.18 0 0 -56.15 9.1 0 27.48 42.92c1.3,2.03 2.08,3.32 2.31,3.87l0.15 0c-0.23,-1.59 -0.36,-4.32 -0.36,-8.19l0 -38.61 7.18 0 0 56.15zm68.33 0l-8 0 -5.73 -15.37 -23.39 0 -5.39 15.37 -8.02 0 21.39 -56.15 7.76 0 21.38 56.15zm-15.99 -21.72l-8.48 -23.35c-0.27,-0.74 -0.56,-2.05 -0.87,-3.91l-0.19 0c-0.27,1.7 -0.57,2.99 -0.9,3.91l-8.41 23.35 18.84 0zm84.61 21.72l0 -37.19c0,-3.07 0.19,-6.76 0.55,-11.05l-0.17 0c-0.63,2.7 -1.19,4.59 -1.67,5.66l-18.52 42.59 -4.02 0 -18.49 -42.27c-0.44,-0.97 -0.99,-2.96 -1.67,-5.98l-0.22 0c0.25,2.6 0.37,6.4 0.37,11.38l0 36.86 -6.93 0 0 -56.15 9.82 0 16.57 38.49c1.25,2.96 2.09,5.25 2.5,6.89l0.25 0c1.26,-3.45 2.14,-5.8 2.65,-7.04l16.87 -38.34 9.34 0 0 56.15 -7.22 0zm61.66 0l-30.19 0 0 -56.15 28.93 0 0 6.45 -21.68 0 0 17.98 20.08 0 0 6.42 -20.08 0 0 18.88 22.94 0 0 6.42zm66.2 0l-8.59 0 -28.25 -43.68c-0.79,-1.24 -1.44,-2.46 -1.92,-3.66l-0.21 0c0.19,1.25 0.29,3.87 0.29,7.87l0 39.47 -7.18 0 0 -56.15 9.1 0 27.48 42.92c1.3,2.03 2.08,3.32 2.31,3.87l0.15 0c-0.23,-1.59 -0.36,-4.32 -0.36,-8.19l0 -38.61 7.18 0 0 56.15zm58.15 -49.7l-16.2 0 0 49.7 -7.29 0 0 -49.7 -16.13 0 0 -6.45 39.62 0 0 6.45zm11.13 22.3c0,-9.06 2.45,-16.27 7.36,-21.64 4.9,-5.36 11.54,-8.04 19.93,-8.04 7.81,0 14.09,2.62 18.84,7.86 4.76,5.25 7.15,12.08 7.15,20.49 0,9.11 -2.45,16.33 -7.33,21.68 -4.89,5.33 -11.41,8.01 -19.57,8.01 -7.98,0 -14.37,-2.62 -19.18,-7.87 -4.81,-5.23 -7.21,-12.06 -7.21,-20.48zm7.61 -0.58c0,6.79 1.73,12.24 5.21,16.33 3.46,4.1 7.99,6.15 13.57,6.15 5.99,0 10.7,-1.97 14.12,-5.89 3.42,-3.93 5.12,-9.43 5.12,-16.48 0,-7.25 -1.67,-12.84 -5.01,-16.78 -3.35,-3.95 -7.93,-5.92 -13.76,-5.92 -5.73,0 -10.37,2.08 -13.92,6.24 -3.55,4.16 -5.33,9.6 -5.33,16.34zm63.63 17.44c1.72,1.51 4.01,2.73 6.89,3.7 2.87,0.97 5.6,1.45 8.19,1.45 7.88,0 11.82,-2.8 11.82,-8.4 0,-1.57 -0.42,-2.98 -1.27,-4.24 -0.84,-1.26 -2,-2.36 -3.48,-3.34 -1.47,-0.96 -4.24,-2.45 -8.3,-4.45 -5.63,-2.8 -9.34,-5.41 -11.12,-7.81 -1.79,-2.41 -2.68,-5.16 -2.68,-8.25 0,-4.67 1.87,-8.35 5.62,-11.09 3.75,-2.74 8.48,-4.1 14.18,-4.1 5.58,0 9.67,0.67 12.29,2.03l0 7.89c-3.39,-2.34 -7.66,-3.51 -12.83,-3.51 -3.44,0 -6.24,0.72 -8.4,2.16 -2.15,1.44 -3.24,3.43 -3.24,5.99 0,2.28 0.76,4.12 2.25,5.56 1.5,1.42 4.75,3.37 9.75,5.83 5.51,2.63 9.37,5.27 11.56,7.91 2.2,2.64 3.3,5.59 3.3,8.88 0,4.92 -1.78,8.71 -5.37,11.35 -3.58,2.64 -8.54,3.95 -14.9,3.95 -2.21,0 -4.81,-0.31 -7.77,-0.93 -2.96,-0.61 -5.12,-1.37 -6.47,-2.3l0 -8.27z"/>
  </g>
 </g>
</svg>
