<svg id="Camada_1" data-name="Camada 1" xmlns="http://www.w3.org/2000/svg" viewBox="0 0 274.57 122.61"><defs><style>.cls-1,.cls-2{fill:#fff;}.cls-1{fill-rule:evenodd;}</style></defs><title>logo-barbara-branca</title><g id="Camada_1-2" data-name="Camada_1"><g id="_2667098780992" data-name=" 2667098780992"><path class="cls-1" d="M235.91,19.89c-1,3.93-4.39,4.47-8.88,4.35l.1-13.4c4.59-.89,8,1.31,8.78,4.94A6.56,6.56,0,0,1,235.91,19.89Zm-15.13-9.77c1.37.6,2.15.36,2.83,1.61s.3,11,.3,12.81.29,11.55-.3,12.86-1.27,1.25-2.73,1.79c.68.53,8.69.24,9.37.18-.88-.72-1.95-.12-2.73-1.49S227,27.16,227,25.07a7,7,0,0,1,5.86,2.56c1.27,1.31,3.81,5.78,4.78,7.45l2.93,4.34,5.37-.24C241,37,240.7,32.75,237.09,28c-1.57-2-1.76-1.73-3.62-3.34,2.93-.59,4.59-1.9,5.57-4.22a7.57,7.57,0,0,0-4-9.89c-2-.77-10.55-.95-13.18-.65-.59,0,0-.06-.49,0s-.2,0-.59.18Z" transform="translate(0)"/><path class="cls-1" d="M154.1,22.63h-.29l-.68.65c-1.47,1-4.88,1.2-6.35.84-.1-2.21-.49-12,.2-13.16,1.17-.72,3.71-.24,5,.29a7.18,7.18,0,0,1,3,2.62c1.47,2.68,1.37,7.27-.88,8.76ZM140.54,10.12c2.44,1.25,3.12-.47,3.12,5.66,0,3,.39,20.31-.39,21.86a1.49,1.49,0,0,1-1.17,1.07c-.69.24-1.08.24-1.56.71H150c-1.56-1.55-3.32.9-3.32-5.36.1-3,.1-6,.1-8.87,6.05-1,8.89,8,13.47,14.17h4.89c.58-.18.29-.06.68-.3a5.48,5.48,0,0,1-3.91-2.86c-3.71-5.59-3.61-7.56-8.49-11.43,1.07-.77,4.1-.95,5.47-4.47a8.08,8.08,0,0,0-1.17-7.62c-2.93-3.39-7.62-2.8-12.4-2.8-1.17,0-4.1-.24-4.78.24Z" transform="translate(0)"/><path class="cls-1" d="M94.07,24.36c4,0,7.51.12,9.66,2.74s1.56,7.38-.39,9.58c-2.15,2.39-8.4,2.62-9.18.06-.39-1.07-.29-10.89-.1-12.38ZM94,11.2c5-1.08,8.39,1.13,8.59,5.89.2,6.25-4.88,6.31-8.59,6.31Zm14.25,23.52c0-1.55.69-2.62.2-4.59-.39-1.78-1.27-2.56-1.66-3.63-3-1.73-2.44-2-7-2.86,2.54-1.25,4.2-1.49,5.47-3.81a6.16,6.16,0,0,0-1-7.27c-3.32-3.69-10.64-2.67-16.5-2.67.1,0,.2,0,.2.11l.68.24c2.54,1,2.35,2.27,2.35,5.3,0,2.86.29,20.55-.39,22A2.57,2.57,0,0,1,88.7,39l-1,.41c4.39,0,14,.78,17.28-1.37,1.85-1.19,2.14-2.26,3.22-3.33Z" transform="translate(0)"/><path class="cls-1" d="M185,34.3c-1.56,5.06-8.1,4.83-9.86,3.34-1.36-1.14-.87-4.17-.87-6.2,0-2.2-.1-4.76.09-7,2.15-.41,7.33-.23,8.79,2,.39.06.39-.36,1.27,1.13,1.17,2,1.56,5.48.59,6.73ZM174.22,11.2c9.37-2,10.34,8.21,6.34,11.07-1.85,1.37-3.81,1.19-6.34,1.13ZM168,39.36l10.25.06c4.68,0,10.05-1.19,10.64-6.9S185,24.36,180,23.7c1.36-.89,2.34-.53,4.49-2.62,3.41-3.39,2.14-11.19-7.52-11.19h-9c1.56,1.37,3.22-.84,3.22,5.65,0,3,.39,20.49-.39,22.1s-1.86,1-2.83,1.73Z" transform="translate(0)"/><path class="cls-1" d="M88.31,85.52c1.07.83,5.66.42,7.22.42.78,0,1.76.11,2.25-.3-2.64-.9-3.13-.06-3.13-5.6a86.45,86.45,0,0,1,.1-8.69l6,6.73a7,7,0,0,0,1.08,1l5,5.78c1.17,1.54,2.14,1.07,5.37,1.07.78,0,1.56.06,2-.3L111.64,85c-1.46-.72-6-5.9-7.32-7.57-2.35-2.68-4.69-5.3-6.93-7.92l8.1-8.1a11.33,11.33,0,0,0,.78-.95c.88-.83,1.17-1.19,1.86-1.73,1.75-1.48,1.75-1.54,3.51-1.84a3.41,3.41,0,0,0,.88-.18c.58-.24.1.06.49-.36h-8.2c.39.48.19.24,1.07.54s.29-.06,1,.53c.19,1.67-3.81,5.24-5.28,6.55-.19.12-.19.24-.39.36-.48.3,0,.06-.48.18a5.13,5.13,0,0,1-1.47,1.73c-.49.53-.88.89-1.46,1.43a16.6,16.6,0,0,1-3,2.85c-.1-2.91-.1-5.83-.1-8.75-.09-4.82.69-4.23,2.54-5l-8.78-.36c.68.6.68.3,1.66.66a1.68,1.68,0,0,1,1.17,1.07C92,59.74,91.63,77,91.63,80c0,3.22.1,5.54-3.32,5.48Z" transform="translate(0)"/><polygon class="cls-1" points="74.54 122.14 76.01 122.14 76.01 0 74.54 0 74.54 122.14"/><path class="cls-1" d="M174.31,59.2c1.66.17,1.18,4.11,1.18,6.19,0,3.39.48,17-.69,18.94-.88,1.61-1.66.59-2.54,1.72l6.84-.53-.59-.18c-2.93-.89-2-5.9-2-10,0-4.58-.1-9.23,0-13.81l5.66,6.25c2.84,2.68,8.79,10.06,11.52,12.69.59.59.78,1.07,1.37,1.72l4.3,4.41c.29-5.3,0-11.26,0-16.67,0-2.33-.39-10.43.48-12,.69-1.19,1.66-1.07,2.83-1.42v-.12L195,56.4c1.07.77,2.93.12,3.32,3.39.2,2.56,0,18.05,0,21.38L183.2,64.26c-1.07-1.43-6-6.25-6.93-7.92l-5.18.06c-.68.18-.19-.06-.48.24,2.53,1.25,2,.23,3.71,2.56Z" transform="translate(0)"/><path class="cls-1" d="M259.54,12.45l4.88,13.87h-9.27Zm-5.17,26.79c-2.54-.65-3.23-.77-1.76-5.47.68-2.09,1.46-4.29,2.15-6.38h10.15c4.39,12.69,3.81,11-.1,11.85,1.17.42,9.08.48,9.76-.06-2.83-1.13-2.92-1.13-4.49-5.89-.88-2.68-1.85-5.36-2.83-8-1.86-5.18-3.51-10.72-5.47-15.78h-2.15c-.87,1.78-4.19,12.86-5.17,15.84-.78,2.26-3.22,10.18-4.1,11.79-1.27,2.2-1.86,1.19-3,2.26a22.91,22.91,0,0,0,7-.12Z" transform="translate(0)"/><path class="cls-1" d="M203.31,12.45c.88,1.13,4.2,11.79,4.88,13.87h-9.27l4.39-13.87ZM191.1,39.36l6.15-.29c-.19-.12-.39-.12-.68-.3-1.66-.84-.68-3.34-.2-4.77.69-2.2,1.57-4.46,2.15-6.61h10.16c.68,2.15,3.51,8.88,3,10.78-.58.66-.49.6-1.36.78-.3.06-.59.06-.88.12l-.78.35c1.85,0,8.78.42,9.76-.24-3.13-.89-3.32-2.08-4.59-5.89-1.95-5.9-6.34-19.12-8.3-23.82H203.5c-1.17,2.62-1.75,5.3-2.73,7.92-1.07,3.27-5.66,17.92-6.64,19.77-1.27,2.14-1.85,1.07-3,2.2Z" transform="translate(0)"/><path class="cls-1" d="M138.68,56.87c2.54.84,1.95,3.93,1.95,6.73s.39,19.18-.49,20.73c-.68,1.19-1.75.83-2.73,1.54l17.67.06.88-3.57c.19-1.55.1-.65-.2-1.07l-1.07,2.2c-1.47,1.85-9.67,2.27-10.64.6-.69-1.19-.49-10.48-.3-12.39a53.89,53.89,0,0,1,6.25-.06c3.22.18,2.34,1.19,3.52,2.86a19.5,19.5,0,0,0,0-6.73c-.49.77,0,2.44-3.42,2.86a44.56,44.56,0,0,1-6.35.06l-.09-13.4c2.63,0,8.39-.54,10.15,1.13a3.28,3.28,0,0,1,.88,1.91l.29.53s.1.12.1.18v-4.7H137.41c.78.65.49.17,1.27.53Z" transform="translate(0)"/><path class="cls-1" d="M118.67,26.32c.49-2.2,1.46-4.7,2.24-7,.49-1.78,1.47-5.65,2.35-6.84l4.68,13.87Zm-2.15,6.61,1.76-5.48,10.15-.06c.68,2.27,3.42,8.7,2.93,10.9a1.78,1.78,0,0,1-1.27.66l7.52.42c.68-.12.19.05.48-.18-1.36-.54-2.14.12-3.61-3.52C133.6,33.59,129,20.19,129,19.41A6.26,6.26,0,0,1,127.94,17l-2.73-7.56-2,.06c-1.86,5.18-3.42,10.36-5.18,15.66-.68,2.08-3.12,10.06-4,11.61s-1.27,1.67-3,2.39c.19.11,0,.11.58.17a4.86,4.86,0,0,0,1,.06l5.27-.06c-1.07-.83-3.9.24-1.27-6.43Z" transform="translate(0)"/><path class="cls-1" d="M118.86,84.39c-.68,1.31-.39.53-2.15,1.43-.09,0-.19.06-.19.12h17.57l1.08-5c-1.37,1.25-1,2.74-2.84,3.58-1,.47-8.59,1.72-9.37-1.61-.39-1.31-.19-15.78-.19-17.81,0-8.45-.2-6.91,2.83-8.45,0-.06.19-.06.19-.12s.1-.12.2-.18h-9.47c1.56,1.43,3.12-.3,3.12,5.18v15.9c0,1.25.1,5-.09,6.08a1.85,1.85,0,0,1-.3.59c-.49.71.1.12-.39.3Z" transform="translate(0)"/><path class="cls-1" d="M161.52,58.06c1.08.72.59,11.44.59,13.23,0,1.42.39,11.67-.39,12.8-.39.71-.1.3-.39.42-.88,1.25-1.56.71-2.34,1.37l9.37.06c-1.76-1.61-3.22.47-3.13-5.66,0-3-.39-20.55.39-22.16.49-1.07.88-.95,2-1.31s.29.06.78-.41L159,56.34c.19.36,1.17.53,1.46.65,1.07.36.78.3,1.07,1.08Z" transform="translate(0)"/><path class="cls-1" d="M125.21,5.66c.39-1.13,1.07-1.49,2-2.44A12,12,0,0,1,129.21,1c-.39-.36.49-.3-.78-.36-1.66,0-1.46-.23-2.15,1l-3.41,5.65c1.66-.11.68-1,2.34-1.6Z" transform="translate(0)"/><path class="cls-1" d="M24.76,25.51a13.76,13.76,0,0,1-4.22,1.89l-.9.4c-.37.08-.27.17-.8.08a21.25,21.25,0,0,0,2.23-.48l7.16-1.58-.29.53a14,14,0,0,1-3.56,2.94l-.53.31-1.24.74a3.24,3.24,0,0,1-.64.4l-3.24,1.32c.3-.31,3.51-.4,4-.44.11,0,3-.84,3.45-.66.58-.09.77-.26,1.38-.31-.27.35-.48.39-.83.66-.39.57-2.3,1.4-3.07,1.75-4.3,1.81-6.53,2.55-11.22,2.55.29,0,2.12.4,2.52.49,1.83.44,7.32.08,9.17-.05-.29.31.24.05-.5.4a11.85,11.85,0,0,0,2.23-.35c.85-.18,1.22-.62,2-.79l-.39.48c-.06.83.16.31-.51.75l-1.86,1.31A34.08,34.08,0,0,1,20,41.19a10.5,10.5,0,0,1-3,1.23,10.91,10.91,0,0,0-1.83.61c-.66.22-1.27.27-2.07.49l3.74-.35c.43-.35,2.79-.31,3.5-.49l1.75-.44c.56-.17,1-.3,1.52-.48a31.59,31.59,0,0,0,3.71-1.54c1.3-.44.26-.39,1.88-1.09l.21-.18c.16-.48-.08-.31.46-.31.15.4-.14.93-.32,1.32-1,2.29-.16,1.06-2,3.95a6.77,6.77,0,0,1-.77,1.23c-.13.22-.1.14-.24.27-1,.92-2.86,2.33-3.34,3.29a1.81,1.81,0,0,1-.16.35,28.86,28.86,0,0,1-2,2.51,13.74,13.74,0,0,0-1.8,3.64s0,.09,0,.13l-2.12,6.33a29.52,29.52,0,0,0-1.17,2.81,15.15,15.15,0,0,1-.9,3.12c-.37,1-.64,2-1,3.12a37.13,37.13,0,0,0-1.48,6.5c-.19,1.14-.51,2.19-.64,3.47-.08,1,.21,3.07-.61,3.47-.43.52,0,.17,0,.17.56.4.18-.09.37.62l4.75-16.21c1-4,4.32-10.67,6.26-14.71L23.27,53a12.58,12.58,0,0,0,.82-1.05c.48-.79.88-1.36,1.36-2.11l1.4-2.11a5.79,5.79,0,0,1,1.83-1.75c1.49-1,2.95.7,3.42,2.1.64,1.85,1.44,4.4,2.55,5.76,1,1.18,1.51,1.05,2.94,1.88l.51.27L36.9,54.5l-1.43-3.16c-.26-.71-.4-1-.61-1.72-.74-2.41-.63-3.91-.93-6.45-.52-4.26.27-5.63,0-9a37.18,37.18,0,0,1,.29-9c.14-.88.4-.79.56-1.85a40,40,0,0,1,2-5.4c.61-1.45.75-2.24,1.38-3.42a12.12,12.12,0,0,0,.72-1.63c.34-.92.32-.92,1.09-1.4,1.3-.84,3.87-1.1,4.21-2.9a3.79,3.79,0,0,0,.06-2,5.2,5.2,0,0,0-3.58-3.47,11.64,11.64,0,0,1-3.42-1.45l-1-.74c-.32-.31.05-.14-.21-.27,1.11,3.56,1.62,4.66,2.7,7.73.91,2.55.61,1.5.22,3.21-.11.44-.06.75-.19,1.1-.21.57-2.07,2.06-2.63,2.72a16.53,16.53,0,0,1-1.24,1.4,3.6,3.6,0,0,0-.61.71c-2.39,3.11-3,3.47-6.15,5.84a13.61,13.61,0,0,1-3.32,2.15Z" transform="translate(0)"/><path class="cls-1" d="M47.57,86.56c2.17.22,3.66-.22,3.66.7a5.47,5.47,0,0,1-.64,1.67c-.5,1-.5,1.14-1.35,1.67-.43.27-.06.05-.43.22a10.93,10.93,0,0,1-10.55-.92L37,88.85c-.39-.49.08-.49-.71-.79a3.31,3.31,0,0,0-2,0s-.07,0-.13,0c-2,.75-3.23,2.77-4.67,3.43-1.06.52-1.27,1.54-3.26,2.77-.58.3-.32.22-.79.66a4.53,4.53,0,0,0-1.7,4.12,11.7,11.7,0,0,1-.85,5.32A6.89,6.89,0,0,1,21,107.07c-.5.53-.13.4-.53.93a5.19,5.19,0,0,1-.79.74c-1.2,1.23-2.2,2.51-3.61,3.87a17.4,17.4,0,0,0-2.68,3.29l-.82,1.32c-.88,2.2,1.25,3.47,2.73,4.13a7.77,7.77,0,0,0,4.7.74c.68,0,3.92-.79,4.4-1.49-.16-.09-2.33.05-2.84.05a9.28,9.28,0,0,1-1.56-.18c-.06,0-.19-.09-.24-.13l-1.17-.26a3.49,3.49,0,0,1-.9-.75l-.85-1a7.45,7.45,0,0,1-.13-2.9l.1-.48c.13-.14.82-2,1.94-2.51.66-.3,2.17-1.31,3.18-1.09.72.13,1.51.7,2.33.52-.21-2.19-.26-5.27.67-7.33a7.47,7.47,0,0,0,.34-.84c1.28-4,.82-2.1,2.92-4.21.64-.66.51-.66.72-1.58a13.49,13.49,0,0,1,1.22-3.65c.85-1.8,1.08-1.27,3.07-1.62a8,8,0,0,1,2.29-.14c1.27.09,7.53,3.08,13.81.22a9.79,9.79,0,0,0,2.76-1.89l3.24-3.9a13.61,13.61,0,0,0,2.33-4.62,26.2,26.2,0,0,0,1-8.21c-.1.7-.24.53-.29,1.14-.13.88.08.53-.24,1.28a16.75,16.75,0,0,1-5,7.16c-2.12,2-3.21,2.28-6.15,2.63l.64.26Z" transform="translate(0)"/><path class="cls-1" d="M58.78,12.51c1.09-.92.51-.44,1.36-1.62l.29-.53c.74-1.76,1.38-5,2.23-7.2.24-.62.21-1,.48-1.14-.11.3-1.6,1.14-2.39,1.89L57.67,6.63c-1.56,1.62-2-.7-5.89-.62a8.1,8.1,0,0,0-2.57.66l-2,.84a12.93,12.93,0,0,0,1.88,0c3.08-.09,5.23,2.11,7.16,4.13a12.42,12.42,0,0,1,2.15,3.82l.37,1.28c.35,1.36.35,2.15,1,4.65.58,2.11-.22,4.92-.75,6.9a14.83,14.83,0,0,0-.55,3.25c-.3,3.12.15,3.73-1,6.63-1.8,4.26-.56,8.34-2.57,9.53l-.8.44c-3.1.88-.82-1-3.66-2.94-.85-.58-.9-.4-1.3-1.37a8.58,8.58,0,0,1-.58-1.88,63.06,63.06,0,0,0-2.58-13c-1-3.34-2-2.77-.69-8.65l.93-4.09c-.9.4-1.72,3.12-2.07,4.09a28.29,28.29,0,0,0-1.43,4.65c-.69,3.43-.32,5.18,1.27,7.73l1.2,1.8a13.66,13.66,0,0,1,1.69,4.44c.4,2.06.08,3.78.24,5.88.37,4.22,1.94,5.76,6.05,6.15a8.07,8.07,0,0,0,2.65-.48c1.2-.4,1.06-.35,1.54-1.45,1.46-3.34.08-5.54,1.56-11.6.08-.26.11-.44.16-.66.35-1.31.56-1.49.75-2.24a59.54,59.54,0,0,0,1.35-9.35,13.46,13.46,0,0,0-.9-5.18c-.21-.79-.53-1.58-.67-2.42-.07-.66-.42-1.54-.58-2.33s-.13-2-.21-2.72Z" transform="translate(0)"/><path class="cls-1" d="M58.78,12.51c.09.75.06,2,.22,2.72s.5,1.67.58,2.33A23.23,23.23,0,0,0,60.24,20a13.09,13.09,0,0,1,.9,5.18,58.38,58.38,0,0,1-1.35,9.35c-.18.75-.4.93-.74,2.24,0,.22-.08.4-.16.66-1.49,6.06-.11,8.26-1.57,11.6-.47,1.1-.34,1.05-1.53,1.45a8.18,8.18,0,0,1-2.66.48c-4.11-.39-5.67-1.93-6-6.15-.16-2.1.16-3.82-.24-5.88a13.91,13.91,0,0,0-1.7-4.44L44,32.67c-1.59-2.55-2-4.3-1.27-7.73a26.48,26.48,0,0,1,1.43-4.65c.34-1,1.16-3.69,2.07-4.09l-.93,4.09c-1.33,5.88-.29,5.31.69,8.65a63.72,63.72,0,0,1,2.57,13,8.6,8.6,0,0,0,.59,1.88c.39,1,.45.79,1.3,1.37,2.83,2,.55,3.82,3.66,2.94l.79-.44c2-1.19.77-5.27,2.57-9.53,1.2-2.9.75-3.52,1-6.63A14.84,14.84,0,0,1,59,28.24c.53-2,1.32-4.79.74-6.9-.69-2.5-.69-3.29-1-4.65l-.37-1.28a12.31,12.31,0,0,0-2.15-3.82c-1.94-2-4.09-4.21-7.16-4.13a13,13,0,0,1-1.89,0l2-.84A8.1,8.1,0,0,1,51.79,6c3.87-.08,4.32,2.24,5.89.62l3.07-2.72C61.55,3.16,63,2.32,63.14,2c-.26.17-.24.52-.48,1.14-.85,2.24-1.48,5.44-2.22,7.2l-.3.53c-.85,1.18-.26.7-1.35,1.62Zm-2.2-5.8L54.78,6a6.82,6.82,0,0,0-4.16-.31l-1.89.58c-.34.13-.82.35-1.16.52-.53.26-.69.22-.77.88,3.71.88,4.4-1.19,9.18,4.13a8.39,8.39,0,0,1,1.32,2c1.46,2.9,1,4,1.91,7.2a14.54,14.54,0,0,1,.21,4.13l-.69,2.46a20.78,20.78,0,0,0-.5,2.68c-.53,5.88.45,2.85-1.38,8.21a12.72,12.72,0,0,0-.4,1.27c-.61,2.38-.58,3.91-1,6.33l-.13.53a1.7,1.7,0,0,1-1.14,1,4.31,4.31,0,0,1-.88.13c-1.45.13-.29-.09-1.3-1.75-.84-1.41-2.28-1.23-2.86-3.6l-.5-3.83a38.85,38.85,0,0,0-1.46-7l-1-3.38c-1.16-3-1.54-3.78-.5-7.69a14.31,14.31,0,0,0,.77-4.39c0-.88-.82-.18-1,0-.75.92-2.74,6.46-3,7.47a12.26,12.26,0,0,0-.19,6.63c.61,2.55,4.32,5.4,4.3,10.63,0,5-.16,8.78,4.8,10.14a6,6,0,0,0,5.06-.57,5.14,5.14,0,0,0,1.73-2.59c.37-1,.5-6.59.53-7.95s1.38-4.92,1.78-6.68l.63-3.55c.11-.71,0-1.32.14-2,.58-3.56.34-4.75-.75-8.22l-.47-2c-.09-.57,0-.22-.16-.7a2.8,2.8,0,0,1-.4-1.23l-.27-3.08a1.41,1.41,0,0,0,.45-.35c1.3-1.36,2.1-4.48,2.55-6.1.11-.4.11-.36.21-.79L63.22,3a3.77,3.77,0,0,0,.5-1.5c-1.86.05-5.57,4.18-6.58,4.88-.45.35,0,.31-.56.31Z" transform="translate(0)"/><path class="cls-1" d="M34.84,76.24l.31,1.19a7,7,0,0,1,.3,1.18,5.37,5.37,0,0,0,.31,1.14l.48,1a11.35,11.35,0,0,1,1-3.2,30.58,30.58,0,0,1,3-6.81L42.42,67c-1.41-.79-.72-.44-1.54-1.37a10.78,10.78,0,0,1-1.19-1.49,5.09,5.09,0,0,1-1.19-2.72c-.19-.7-.77-1.23-1.12.09l-.82,2.9C35.37,68.2,34.25,69.17,34.3,72A18.06,18.06,0,0,0,34.84,76.24Z" transform="translate(0)"/><path class="cls-1" d="M.57,116.42a6.34,6.34,0,0,0,.29-.74s-.16,0-.19,0c-.95,0,.53.35-.21-.13A46.94,46.94,0,0,1,3,110.85,23.1,23.1,0,0,1,5,107.64c.4-.57.11-.44.67-1s.21,0,.82-1c.48-.75.5-.4,1.14-1.63l.93-1.58a16.19,16.19,0,0,0,1.27-5.84c-1.43,0-2.52,1-3.66,1.93a5.16,5.16,0,0,0-.93.88l-.53.49c-.29.26-.16.08-.4.44-2,2.85-1.8,3.9-2.44,6.63l-.66,3c-.34,1.18-.37,5.36-.95,6.28l.1.09.06,0s0,0,.08,0,0,0,0,0Z" transform="translate(0)"/><path class="cls-1" d="M24.41,25.34c.61-.27.21-.18.35.17a13.36,13.36,0,0,0,3.31-2.15c3.13-2.37,3.77-2.72,6.16-5.84a3.6,3.6,0,0,1,.61-.71,16.53,16.53,0,0,0,1.24-1.4c.56-.66,2.42-2.15,2.63-2.72a9.36,9.36,0,0,0,.18-1.1c.4-1.71.69-.66-.21-3.21C37.59,5.31,37.09,4.21,36,.65c.26.13-.11,0,.21.27l1,.74a11.87,11.87,0,0,0,3.42,1.45,5.16,5.16,0,0,1,3.58,3.47,3.79,3.79,0,0,1,0,2c-.34,1.8-2.92,2.06-4.22,2.9-.77.48-.74.48-1.08,1.4a12.12,12.12,0,0,1-.72,1.63,35.13,35.13,0,0,0-1.38,3.42,38.66,38.66,0,0,0-2,5.4c-.16,1.06-.43,1-.56,1.85a36.2,36.2,0,0,0-.29,9c.24,3.38-.56,4.75,0,9,.29,2.54.19,4,.93,6.45a15.89,15.89,0,0,0,.61,1.72L36.9,54.5c0-.53-.18-.44.29-.44A21.57,21.57,0,0,1,35.79,51l-.64-1.67c-.87-1.88-1-9-.79-11,.23-2.81,0-6.76,0-9.66a25.86,25.86,0,0,1,1.72-7.91l3.26-7.86a.24.24,0,0,0,0-.13c.4-.83.4-1,1.54-1.45l.24-.09a.17.17,0,0,0,.13,0c2.23-.84,3.05-1.14,3.43-3.21C45.2,5.35,43,3.46,40.61,2.58c-3.31-1.14-1.77-.39-4-2a1.28,1.28,0,0,0-1-.35A14.71,14.71,0,0,0,36.8,4.43c.5,1.54,2.09,5.05,2,5.88-.21,2.51-1.51,3.16-3.11,4.92l-5.06,5.58c-.56.53-1,.66-1.49,1.14l-3.92,2.72c-.11.09-.27.18-.4.27l-.45.39Z" transform="translate(0)"/><path class="cls-1" d="M47.3,87c.5,0,.35.09.27-.44l-.64-.26c2.94-.36,4-.62,6.15-2.64a16.69,16.69,0,0,0,5-7.16c.32-.74.11-.39.24-1.27,0-.62.19-.44.29-1.14a26.53,26.53,0,0,1-1,8.21,13.56,13.56,0,0,1-2.33,4.61L52.1,90.82a10.23,10.23,0,0,1-2.76,1.89c-6.28,2.85-12.54-.13-13.82-.22a7.92,7.92,0,0,0-2.28.13c-2,.35-2.23-.17-3.07,1.63A13.08,13.08,0,0,0,29,97.89c-.22.92-.08.92-.72,1.58-2.1,2.11-1.64.18-2.92,4.22a6.49,6.49,0,0,1-.34.83c-.93,2.07-.88,5.14-.67,7.34-.82.17-1.62-.4-2.33-.53-1-.22-2.52.79-3.18,1.1-1.12.53-1.81,2.37-1.94,2.5l0,.7c.14-.26.27-.22.37-.3a3.61,3.61,0,0,1,.8-1.76,6.38,6.38,0,0,1,3.55-1.84c.22,0,.06,0,.37.13a3.71,3.71,0,0,0,1.75.44c2.39,0-.26-1.8,1.46-7.07.32-1,.35-.44.59-1.54a5.45,5.45,0,0,1,.71-1.93c.93-1.67,2.26-1,2.95-3.91a12.32,12.32,0,0,1,.95-3.16c.88-1.63,1.17-1.67,4-1.72a5.28,5.28,0,0,1,2.49.35c3.58,1.15,9.15,1.59,12.68-.26.37-.22.53-.35.93-.57a20.8,20.8,0,0,0,5.38-5.58,13.59,13.59,0,0,1,1-1.62c1.22-1.89,1.57-4.57,2-6.37.26-1.23.55-4.22.08-5.23h-.67l-.47,2.51c-.14.3-.3.7-.43,1l-.47,1.06c-1.22,2.63-5,6.8-7.93,7.2-.56,0-.72.09-1.3.17s-.85,0-1.17.49c.16.65.18.39.82.83Z" transform="translate(0)"/><path class="cls-1" d="M47.3,87a19.1,19.1,0,0,0,2.81.09c.35,0,.74-.22.64.52a5.48,5.48,0,0,1-2,2.82c-2.47,1.36-7.27,1.14-10.13-.75-1.86-1.23-1.43-2.42-3.79-2.11a4.23,4.23,0,0,0-2.1,1L28.36,92c-.45.35-.39.49-.79.84-1.94,1.71-3.77,2.37-4.25,5.27-.31,2.06.14,4.08-.58,5.71-1,2.37-1.86,2.63-2.47,3.86-.34.75-.18.31-.69.79a30.19,30.19,0,0,1-2.36,2.46c-1.46,1.23-5.14,5.49-5.27,7.38a2.71,2.71,0,0,0,1,2.15c1.7,1.63,4.8,2.37,7.27,2.16a16.89,16.89,0,0,0,3.63-1c.82-.4.4,0,1.19-.66-.18-.31.37,0-.21-.27-.74-.35,0-.13-.42,0-.48.7-3.72,1.45-4.41,1.49a7.75,7.75,0,0,1-4.69-.74c-1.49-.66-3.61-1.93-2.73-4.13l.82-1.32a17.4,17.4,0,0,1,2.68-3.29c1.4-1.36,2.41-2.64,3.61-3.87a5.71,5.71,0,0,0,.79-.74c.4-.53,0-.4.53-.93a6.89,6.89,0,0,0,1.86-2.63,11.7,11.7,0,0,0,.85-5.32A4.55,4.55,0,0,1,25.44,95c.48-.44.22-.36.8-.66,2-1.23,2.2-2.24,3.26-2.77,1.43-.66,2.71-2.68,4.67-3.43,0,0,.08,0,.13,0a3.31,3.31,0,0,1,2,0c.79.3.31.3.71.79l1.27,1.05a11,11,0,0,0,10.56.92,1.45,1.45,0,0,0,.43-.22c.84-.52.84-.66,1.35-1.67a5.47,5.47,0,0,0,.64-1.67c0-.92-1.49-.48-3.66-.7C47.64,87.09,47.8,87,47.3,87Z" transform="translate(0)"/><path class="cls-1" d="M11.31,84.32v1c.9,0,.77,0,1.46-2l4-13.79a69.2,69.2,0,0,1,2.84-7.78l1.64-3.55c.21-.44.37-.75.58-1.23.4-1,.74-1.58,1.14-2.5.21-.44.3-.71.53-1.15l2.23-3.25L27.09,48a4.66,4.66,0,0,1,.85-1c.58-.57.72-.53.95-1.05h-.21a5.79,5.79,0,0,0-1.83,1.75l-1.4,2.11c-.48.75-.88,1.32-1.36,2.11s-.47.52-.82,1.05L22.69,54c-1.94,4-5.25,10.76-6.26,14.71L11.68,84.94c-.19-.71.19-.22-.37-.62Z" transform="translate(0)"/><path class="cls-1" d="M29.43,39c.18.48-.59,1.89-.93,2.59a9.61,9.61,0,0,1-.67,1.32c-.29.48-.53.75-.79,1.23-1,1.8-2.73,2.59-3.9,4-.4.48-.37.66-.85,1.19a15.72,15.72,0,0,0-3.24,5.36l-3,8.34a11.85,11.85,0,0,0-.58,1.4c-.19.75-.19,1-.37,1.63L14.07,69c-1,2.37-2.2,8.74-2.58,11.38-.08.65,0,1.31,0,2,0,.84-.16.93-.16,1.8.82-.39.53-2.5.61-3.47.13-1.27.45-2.32.64-3.46A38.8,38.8,0,0,1,14,70.71c.35-1.1.61-2.07,1-3.12a14.72,14.72,0,0,0,.9-3.12,29.52,29.52,0,0,1,1.17-2.81l2.12-6.33s0-.09,0-.13A14.12,14.12,0,0,1,21,51.55a26.93,26.93,0,0,0,2-2.5,1.81,1.81,0,0,0,.16-.35c.48-1,2.36-2.37,3.34-3.3.14-.13.11,0,.24-.26a7.13,7.13,0,0,0,.77-1.23c1.86-2.9,1-1.67,2-3.95.19-.4.48-.92.32-1.32-.53,0-.3-.17-.45.31Z" transform="translate(0)"/><path class="cls-1" d="M.57,116.42s0,0,0,0-.08,0-.08,0l-.06,0-.1-.09c.58-.92.61-5.1,1-6.28l.66-3c.64-2.72.4-3.78,2.44-6.63.24-.35.11-.18.4-.44l.53-.49a4.78,4.78,0,0,1,.93-.87c1.14-1,2.23-1.94,3.66-1.94a16.29,16.29,0,0,1-1.27,5.85L7.65,104c-.64,1.23-.66.87-1.14,1.62-.61,1.06-.11.4-.82,1.06s-.27.39-.67,1A23.1,23.1,0,0,0,3,110.85a48,48,0,0,0-2.5,4.74c.75.48-.74.18.21.13,0,0,.14,0,.19,0l4.43-8c1.35-1.67,1.72-1.62,3.05-4.09a7.79,7.79,0,0,0,1.14-2.32l.42-1.45a10.61,10.61,0,0,0,.4-3.21c-1.14-.79-1.46-.52-2.52.27a2.93,2.93,0,0,1-.64.35,13,13,0,0,0-2.73,2.24c-1.09.92-1.91,3.16-2.33,4.52L.35,113.26c0,2-.69,2.42-.16,3.52.4-.14.16,0,.38-.36Z" transform="translate(0)"/><path class="cls-1" d="M33.38,96.22a14.22,14.22,0,0,0-2.26,2.15c-2.25,3-2.39,2.73-3.61,6.55l-.61,2.37c0,.62-.08,2.68-.82,3.51-.53.62-.45,0-.69.79,1.38.66,2.92-1.14,3.45-2.37.26-.61.34-2.46.74-4.08l.69-2.11a9.2,9.2,0,0,1,.53-1c.45-.75.69-1.32,1.12-2.07.63-1.1,2.09-2.63,2.12-4l-.35.18c0,.74-.21.61-1,1.66-.24.36-.8,1.28-1.07,1.76-.37.7-.66,1.14-1,1.85a8.79,8.79,0,0,0-1.22,2.89c-.51,1.72-.53,4-1.41,5.58-.5.88-.48,1.06-1.65,1.28,1.38-2.46.59-4.48,2.53-8.66a8.59,8.59,0,0,1,.87-1.67l3.66-4.3v-.09a.22.22,0,0,0,0-.09v-.13Z" transform="translate(0)"/><path class="cls-1" d="M33.7,96.13l-.32.09v.13a.3.3,0,0,1,0,.09v.09l-3.66,4.3a9.17,9.17,0,0,0-.87,1.67c-1.94,4.18-1.14,6.2-2.52,8.66,1.17-.22,1.14-.4,1.64-1.28.88-1.58.91-3.86,1.41-5.58a9,9,0,0,1,1.22-2.89c.35-.71.64-1.15,1-1.85.26-.48.82-1.4,1.06-1.76.8-1,1-.92,1-1.66Z" transform="translate(0)"/><path class="cls-1" d="M34.52,77.16s.1-.17.13-.13a.62.62,0,0,0,.08-.18c.16-.48.08-.08.11-.61A18.06,18.06,0,0,1,34.3,72c0-2.85,1.07-3.82,2.26-7.59l.82-2.9c.35-1.32.93-.79,1.12-.09a5.09,5.09,0,0,0,1.19,2.72,10.78,10.78,0,0,0,1.19,1.49c.82.93.14.58,1.54,1.37l-2.23,3.73a30.58,30.58,0,0,0-3,6.81c0,.13-.11.31.31,0,.24-.17.64-1.75,1.06-2.59l1.33-2.68c.27-.48.37-.83.66-1.31l2.26-3.74c-.67-1-1.75-1.67-2.58-2.9-.21-.3-.34-.48-.53-.79a3.65,3.65,0,0,1-.45-1c-.26-.7-.45-1.41-.74-2.06H37.35c-.42.87-.55,2.37-1.16,4-.48,1.28-.85,2.72-1.38,3.78-1.89,3.73-.53,5.23-.3,9Z" transform="translate(0)"/><path class="cls-1" d="M20.54,27.4l-.26,0a1.31,1.31,0,0,0-1.15,0c-.58.22-.61.35-.68.66A15.89,15.89,0,0,0,23,27.44l.69-.17h.14l3.55-1a9.2,9.2,0,0,1-2.57,2.11,24.57,24.57,0,0,1-6.58,3.2v.71A32,32,0,0,0,22.58,32l3.26-.71c.59-.3.16-.09.35-.3-.45-.18-3.34.65-3.45.65-.5.05-3.71.14-4,.44L22,30.74a3.24,3.24,0,0,0,.64-.4c.5-.31.87-.52,1.25-.74.13-.09.45-.27.53-.31a14.31,14.31,0,0,0,3.55-2.95l.29-.52L21.07,27.4a20.72,20.72,0,0,1-2.23.48c.53.09.43,0,.8-.09l.9-.39Z" transform="translate(0)"/><path class="cls-1" d="M23.64,36.45c.75-.35.22-.09.51-.4-1.86.13-7.35.49-9.18.05-.4-.09-2.23-.49-2.52-.49,4.69,0,6.92-.74,11.22-2.55a11.23,11.23,0,0,0,3.08-1.75c-.82,0-2,.92-3.24,1.4-4.69,2-6.81,2.59-11.69,2.59,0,.75.55.93,2.17,1.15a23.94,23.94,0,0,0,3.13.17h3.32l3.2-.17Z" transform="translate(0)"/><path class="cls-1" d="M24.44,120.6c.45-.09-.32-.31.42,0,.58.22,0,0,.21.26a2,2,0,0,0-.34-1c-3.1,0-2.44.58-5.65-.13-2-.44-1.8-2.72-1.8-4.43-.11.08-.24,0-.37.3l-.06-.7-.1.48a7.45,7.45,0,0,0,.13,2.9l.85,1a3.3,3.3,0,0,0,.9.75l1.17.26a1.83,1.83,0,0,0,.24.13,7.59,7.59,0,0,0,1.56.18c.51,0,2.68-.13,2.84,0Z" transform="translate(0)"/><path class="cls-1" d="M28.89,45.93c.85.31,1.81-.35,2.74,1.94,1,2.5.9,4,2.7,6.23A6.5,6.5,0,0,0,37,55.9c.24-.26-.4-.22.55-.22-1.43-.83-2-.7-2.94-1.88-1.11-1.36-1.91-3.91-2.55-5.76-.47-1.4-1.93-3.12-3.42-2.1h.21Z" transform="translate(0)"/><path class="cls-1" d="M16.85,43.17l-.05.44a24.3,24.3,0,0,0,11.88-3.87c.48-.31.35.09.53-.61-1.61.7-.58.65-1.88,1.09a30.8,30.8,0,0,1-3.71,1.54c-.48.18-1,.31-1.51.48l-1.76.44C19.64,42.86,17.28,42.82,16.85,43.17Z" transform="translate(0)"/><path class="cls-1" d="M16.77,42c.51,0,.35-.13.24.44a10.38,10.38,0,0,0,3-1.23,34.67,34.67,0,0,0,5.15-3.34L27,36.54c.66-.44.45.08.5-.75A22.52,22.52,0,0,0,25,37.5a24.21,24.21,0,0,1-5.23,3.25,14,14,0,0,1-3,1.23Z" transform="translate(0)"/><path class="cls-1" d="M34.52,77.16c.66.66.66,3.78,1.67,4.52.5-.39.45-.79.77-1.88a17.3,17.3,0,0,0,.55-2.29c-.42.35-.34.18-.31,0a11.35,11.35,0,0,0-1,3.2l-.48-1a6.9,6.9,0,0,1-.31-1.14,7.12,7.12,0,0,0-.3-1.19l-.31-1.18c0,.52,0,.13-.11.61a.62.62,0,0,1-.08.18s-.08.09-.13.13Z" transform="translate(0)"/><path class="cls-1" d="M12.48,43.25s.1,0,.13.14.11.08.16.08c1,.27-.37.09.34.05.8-.22,1.41-.27,2.07-.49A11.22,11.22,0,0,1,17,42.42c.11-.57.27-.44-.24-.44l-4.29,1.27Z" transform="translate(0)"/><path class="cls-1" d="M16.8,43.61l.05-.44-3.74.35c-.71,0,.69.22-.34-.05-.06,0-.13,0-.16-.08s-.11-.09-.13-.14c-1.33.71.82.75,1.45.66a9.94,9.94,0,0,1,1.36-.13A12.06,12.06,0,0,0,16.8,43.61Z" transform="translate(0)"/><path class="cls-1" d="M20.28,27.44l.26,0a13.76,13.76,0,0,0,4.22-1.89c-.13-.35.26-.44-.35-.17l-3,1.45a3.82,3.82,0,0,0-.61.22c-.64.26-.24,0-.51.44Z" transform="translate(0)"/><path class="cls-1" d="M37.59,55.68c-1,0-.31,0-.55.22.55.27,1.61.62,1.19-.35,0-.09-.42-.57-.51-.7-.23-.31-.26-.39-.52-.79-.48,0-.35-.09-.3.44L38.1,56l-.51-.26Z" transform="translate(0)"/><path class="cls-2" d="M95.47,103.17h-2.6v8H91.7v-8H89.11v-1h6.36Zm9.52,8h-1.37l-1.5-2.5a3.47,3.47,0,0,0-.82-1,1.47,1.47,0,0,0-.89-.27h-.84v3.79H98.41v-9h2.75a3.06,3.06,0,0,1,2.06.64,2.21,2.21,0,0,1,.74,1.77,2.38,2.38,0,0,1-2,2.43v0a2,2,0,0,1,.64.45,6.63,6.63,0,0,1,.7,1l1.69,2.7Zm-5.42-8v3.18H101a1.8,1.8,0,0,0,1.29-.46,1.61,1.61,0,0,0,.5-1.22,1.38,1.38,0,0,0-.45-1.1,1.93,1.93,0,0,0-1.32-.4h-1.4Zm13,8h-4.85v-9h4.64v1h-3.48v2.88h3.23v1h-3.23v3h3.69Zm4.43-9v9h-1.17v-9Zm11.26,9h-1.38l-4.54-7a3.57,3.57,0,0,1-.3-.58h0a10.43,10.43,0,0,1,0,1.26v6.33h-1.15v-9h1.46L126.8,109a6.86,6.86,0,0,1,.37.62h0a12.42,12.42,0,0,1,0-1.31v-6.2h1.15v9Zm11,0H138l-.92-2.46H133.3l-.87,2.46h-1.28l3.43-9h1.25Zm-2.57-3.48-1.36-3.75a4.54,4.54,0,0,1-.14-.63h0a2.92,2.92,0,0,1-.15.63l-1.35,3.75Zm13.58,3.48v-6q0-.73.09-1.77h0a6.73,6.73,0,0,1-.26.91l-3,6.84h-.64l-3-6.79a5.8,5.8,0,0,1-.27-1h0q.06.63.06,1.83v5.91h-1.12v-9h1.58l2.66,6.18a8.34,8.34,0,0,1,.4,1.11h0c.2-.56.34-.94.43-1.13l2.7-6.16h1.5v9Zm9.9,0h-4.85v-9H160v1h-3.48v2.88h3.22v1h-3.22v3h3.68Zm10.63,0h-1.38l-4.54-7a3.57,3.57,0,0,1-.3-.58h0a10.43,10.43,0,0,1,.05,1.26v6.33h-1.15v-9h1.46l4.41,6.89a6.86,6.86,0,0,1,.37.62h0a12.42,12.42,0,0,1,0-1.31v-6.2h1.15v9Zm9.33-8h-2.6v8h-1.17v-8h-2.59v-1h6.36Zm1.79,3.58a4.94,4.94,0,0,1,1.18-3.48,4.12,4.12,0,0,1,3.2-1.29,3.92,3.92,0,0,1,3,1.26,4.74,4.74,0,0,1,1.14,3.29A5,5,0,0,1,189.3,110a4.07,4.07,0,0,1-3.15,1.29,4,4,0,0,1-3.07-1.26,4.64,4.64,0,0,1-1.16-3.29Zm1.22-.1a3.89,3.89,0,0,0,.84,2.62,2.7,2.7,0,0,0,2.18,1,2.84,2.84,0,0,0,2.26-.94,3.91,3.91,0,0,0,.82-2.65,4,4,0,0,0-.8-2.69,2.72,2.72,0,0,0-2.21-1,2.78,2.78,0,0,0-2.23,1,3.9,3.9,0,0,0-.86,2.62Zm10.22,2.8a3.09,3.09,0,0,0,1.1.6,4.27,4.27,0,0,0,1.32.23q1.89,0,1.89-1.35a1.16,1.16,0,0,0-.2-.68,1.93,1.93,0,0,0-.56-.54,15.06,15.06,0,0,0-1.33-.71,5.32,5.32,0,0,1-1.79-1.25,2.23,2.23,0,0,1-.43-1.33,2.08,2.08,0,0,1,.91-1.78,3.74,3.74,0,0,1,2.27-.66,4.51,4.51,0,0,1,2,.33v1.27a3.53,3.53,0,0,0-2.06-.57,2.37,2.37,0,0,0-1.35.35,1.08,1.08,0,0,0-.52,1,1.17,1.17,0,0,0,.36.89,7.32,7.32,0,0,0,1.56.94,5.49,5.49,0,0,1,1.86,1.27,2.28,2.28,0,0,1-.33,3.25,4,4,0,0,1-2.39.63,6.11,6.11,0,0,1-1.25-.15,3,3,0,0,1-1-.37v-1.33Z" transform="translate(0)"/></g></g></svg>